<svg width="706" height="123" viewBox="0 0 706 123" fill="none" xmlns="http://www.w3.org/2000/svg">
<g clip-path="url(#clip0_62_1403)">
<path d="M528.208 123C528.286 123 528.443 122.921 528.443 122.843C535.88 108.792 544.883 95.6054 555.296 83.5959C555.374 83.4389 555.374 83.2819 555.296 83.2034C555.139 83.1249 554.983 83.1249 554.904 83.2034C544.492 95.213 535.411 108.478 527.973 122.529C527.895 122.686 527.973 122.843 528.13 122.921C528.052 123 528.13 123 528.208 123Z" fill="black"/>
<path d="M518.735 115.543C518.814 115.543 518.892 115.464 518.97 115.386C526.956 103.926 536.037 93.0937 545.98 83.2819C546.058 83.2034 546.136 82.968 545.98 82.8895C545.901 82.811 545.667 82.7325 545.588 82.8895C535.646 92.7012 526.486 103.533 518.501 115.072C518.422 115.229 518.422 115.386 518.579 115.464C518.579 115.543 518.657 115.543 518.735 115.543Z" fill="black"/>
<path d="M470.823 89.8755C495.719 86.0293 519.597 78.0229 541.752 66.1703C541.909 66.0918 541.987 65.9349 541.909 65.7779C541.83 65.6209 541.674 65.5424 541.517 65.6209C519.44 77.4735 495.641 85.4014 470.823 89.2476C470.667 89.2476 470.588 89.4045 470.588 89.5615C470.588 89.7185 470.667 89.8755 470.823 89.8755Z" fill="black"/>
<path d="M473.25 115.543C473.328 115.543 473.328 115.543 473.407 115.465L541.047 73.6273C541.204 73.5488 541.204 73.3918 541.126 73.2348C541.047 73.0778 540.891 73.0778 540.734 73.1563L473.094 114.994C472.937 115.072 472.937 115.229 473.015 115.386C473.094 115.465 473.172 115.543 473.25 115.543Z" fill="black"/>
<path d="M698.328 98.5883C698.093 100.315 697.232 101.885 696.449 103.376C695.666 103.062 694.961 102.827 694.178 102.748C693.396 102.67 692.613 102.905 691.986 103.376C691.595 103.69 691.282 104.161 691.047 104.632C690.577 105.574 690.342 106.673 690.342 107.772C689.873 108.165 689.325 108.243 688.777 108.322C687.524 108.479 686.35 108.557 685.097 108.635C685.019 107.537 684.627 106.438 683.844 105.731C683.062 105.025 681.887 104.632 680.869 105.025C680.556 105.103 680.321 105.26 680.087 105.417C679.46 105.731 678.834 106.045 678.443 106.673C678.364 106.673 674.92 103.298 674.92 103.298C675.859 102.434 676.485 101.336 676.72 100.08C676.799 99.7657 676.799 99.3732 676.72 99.0592C676.564 98.5883 676.251 98.1173 675.781 97.8818C675.311 97.5678 674.841 97.4109 674.372 97.2539C673.902 97.0969 673.51 97.0184 673.041 96.8614C672.884 96.8614 674.293 91.6808 674.293 91.6808C674.998 91.7593 675.781 91.7593 676.485 91.6808C676.877 91.6808 677.347 91.6023 677.738 91.3668C678.443 91.0528 678.912 90.5034 679.225 89.8754C679.539 89.2475 679.695 88.4626 679.695 87.7561C679.695 87.0497 679.617 86.3432 679.304 85.7938C681.026 85.0873 682.827 84.5379 684.627 84.2239C685.254 86.0292 686.976 87.4421 688.855 87.6776C690.342 87.6776 691.752 87.1281 692.769 86.0292C693.004 86.1862 693.239 86.2647 693.396 86.4217C693.474 86.5002 693.63 86.5787 693.709 86.7357C694.805 87.9131 695.744 89.2475 696.684 90.5819C695.901 91.2883 695.274 92.1518 695.04 93.0937C694.726 94.1926 694.961 95.4485 695.588 96.4689C696.214 97.4894 697.232 98.1958 698.328 98.5883ZM687.837 93.0937C687.837 92.9367 687.759 92.7012 687.524 92.6227C686.741 92.3872 685.88 92.5442 685.175 92.9367C684.471 93.2507 683.844 93.7216 683.375 94.3496C682.514 95.527 682.279 97.1754 683.062 98.4313C683.218 98.7453 683.531 98.9807 683.844 99.2162C684.079 99.4517 684.392 99.6872 684.784 99.8442C685.175 100.001 685.567 100.001 685.958 100.001C686.35 100.001 686.741 100.08 687.133 99.9227C687.446 99.8442 687.837 99.6087 688.072 99.4517C688.385 99.2162 688.62 98.9807 688.855 98.7453C689.325 98.1958 689.638 97.5678 689.716 96.8614C689.873 95.37 689.168 93.8001 687.837 93.0937Z" fill="white"/>
<path d="M685.097 108.949C686.819 108.871 688.62 108.714 690.421 108.322C690.577 108.322 690.656 108.165 690.656 108.086C690.656 107.929 690.734 107.694 690.734 107.537C690.812 106.752 690.89 105.967 691.204 105.26C691.517 104.318 692.221 103.69 692.926 103.376C693.944 102.984 695.118 103.455 696.292 103.926C696.449 104.004 696.605 103.926 696.684 103.769C697.623 102.277 698.328 100.551 698.876 98.7453C698.876 98.6668 698.876 98.5883 698.876 98.5098C698.798 98.4313 698.798 98.3528 698.719 98.3528C697.075 97.9603 695.744 96.6259 695.431 95.0561C695.118 93.4862 695.744 91.7593 697.075 90.8174C697.232 90.7389 697.232 90.5034 697.153 90.4249C696.057 88.855 694.727 87.2852 693.239 85.7153C693.161 85.6368 693.082 85.6368 693.004 85.6368C692.926 85.6368 692.848 85.7153 692.769 85.7153C692.221 86.3432 690.342 88.3056 687.289 86.7357C685.958 86.0293 685.097 84.4594 685.175 84.1454C685.175 84.0669 685.175 83.9099 685.097 83.8314C685.019 83.7529 684.941 83.7529 684.784 83.7529C684.314 83.9099 683.766 84.0669 683.296 84.2239C681.731 84.6949 680.243 85.0873 679.304 85.5583C679.147 85.6368 679.069 85.7938 679.147 85.9508C679.382 86.5787 680.165 88.6981 678.599 90.5034C677.66 91.6023 675.389 91.6023 674.45 91.2099C674.293 91.1314 674.137 91.2099 674.059 91.3668C673.354 93.0937 672.884 94.8991 672.571 96.6259C672.571 96.7044 672.571 96.7829 672.649 96.8614C672.728 96.9399 672.728 96.9399 672.806 97.0184C673.589 97.1754 674.372 97.4109 675.076 97.7249C675.859 98.1173 676.329 98.5098 676.485 99.0592C676.564 99.3732 676.564 99.6872 676.485 100.158C676.251 101.257 675.624 102.356 674.763 103.062C674.607 103.141 674.607 103.376 674.685 103.455C675.624 104.632 676.799 105.81 678.286 106.909C678.364 106.987 678.443 106.987 678.521 106.987C678.599 106.987 678.678 106.909 678.756 106.83C679.226 106.124 680.008 105.731 680.713 105.496C681.183 105.339 681.731 105.103 682.2 105.182C682.749 105.26 683.296 105.574 683.531 105.888C684.236 106.595 684.706 107.537 684.784 108.557C684.784 108.871 684.941 108.949 685.097 108.949ZM690.108 107.772C688.464 108.086 686.898 108.322 685.332 108.322C685.175 107.301 684.706 106.281 683.923 105.496C683.375 105.025 682.827 104.711 682.2 104.632C681.574 104.554 680.948 104.789 680.478 104.946C679.695 105.26 678.991 105.574 678.364 106.281C677.112 105.339 676.094 104.318 675.311 103.298C676.172 102.513 676.799 101.336 677.033 100.237C677.112 99.6872 677.112 99.2947 677.033 98.9023C676.799 98.2743 676.251 97.7249 675.311 97.2539C674.607 96.9399 673.902 96.7044 673.119 96.5474C673.432 94.9776 673.824 93.4862 674.45 91.9163C675.624 92.2303 677.895 92.1518 678.912 90.8959C680.478 89.012 680.008 86.8927 679.695 86.0293C680.556 85.6368 681.887 85.2443 683.375 84.8518C683.766 84.7734 684.158 84.6164 684.471 84.5379C684.706 85.4013 685.723 86.7357 686.819 87.3637C689.951 88.9335 692.065 87.2067 692.848 86.4217C694.179 87.7561 695.353 89.169 696.371 90.5819C695.04 91.6808 694.413 93.5647 694.727 95.213C695.118 96.8614 696.449 98.2743 698.093 98.8238C697.623 100.394 696.919 101.885 696.214 103.219C695.04 102.748 693.865 102.356 692.691 102.748C691.752 103.062 691.047 103.847 690.577 104.946C690.264 105.731 690.186 106.516 690.108 107.38C690.108 107.615 690.108 107.694 690.108 107.772Z" fill="black"/>
<path d="M686.193 100.551C686.585 100.551 687.054 100.472 687.446 100.315C689.09 99.7656 690.264 98.0388 690.186 96.3904C690.107 94.8205 689.246 93.4076 687.915 92.7012C686.819 92.1517 685.41 92.2302 684.314 93.0152C683.375 93.6431 682.67 94.742 682.357 95.9979C682.2 96.5474 682.2 97.0968 682.279 97.4893C682.357 97.9603 682.592 98.4312 682.905 98.9022C683.61 99.9226 684.941 100.551 686.193 100.551ZM687.602 93.2506C688.698 93.8001 689.481 95.056 689.559 96.3904C689.638 97.8033 688.62 99.2947 687.211 99.7656C685.88 100.237 684.158 99.6871 683.296 98.5097C683.062 98.1173 682.827 97.7248 682.748 97.3323C682.67 96.9399 682.748 96.5474 682.827 96.0764C683.14 94.9775 683.766 94.0356 684.549 93.4861C685.567 92.9367 686.741 92.7797 687.602 93.2506Z" fill="black"/>
<g opacity="0.1294">
<path d="M691.752 96.7044C691.673 96.1549 691.595 95.527 691.282 95.056C690.577 94.1141 689.011 94.899 689.403 95.9979C689.403 96.1549 689.481 96.1549 689.403 96.7829C689.325 97.1753 689.168 97.5678 689.09 97.8818V97.9603C688.463 99.1377 688.463 98.9022 688.307 99.0592C688.15 99.1377 688.072 99.2162 687.367 99.3732C687.133 99.3732 686.506 99.4517 686.271 99.4517C686.115 99.4517 685.958 99.4517 685.88 99.4517C685.802 99.4517 685.645 99.3732 685.567 99.3732C685.332 99.2947 685.097 99.2162 684.784 99.2162C683.61 99.2947 683.296 101.022 684.314 101.571C685.41 102.12 686.819 102.199 687.994 101.963C688.62 101.806 689.168 101.571 689.716 101.179C689.873 101.1 690.342 100.786 690.89 99.9226C691.36 99.0592 691.83 97.8818 691.752 96.7044Z" fill="black"/>
</g>
<g opacity="0.1294">
<path d="M696.292 99.2163C695.823 100.394 696.057 100.237 695.353 101.257C695.196 101.414 695.118 101.65 694.961 101.807C694.727 102.042 694.648 102.356 694.648 102.67C694.648 103.926 696.292 104.318 696.919 103.298C697.623 102.278 698.093 101.1 698.406 99.8443C698.797 98.3529 696.684 97.8034 696.292 99.2163Z" fill="black"/>
</g>
<path d="M419.466 111.069C418.449 112.325 416.57 112.482 415.239 111.461C413.908 110.441 413.595 108.557 414.613 107.301C415.63 106.045 417.509 105.888 418.84 106.909C420.171 107.929 420.484 109.813 419.466 111.069Z" fill="white"/>
<path d="M417.274 112.403C417.353 112.403 417.431 112.403 417.588 112.403C418.449 112.325 419.232 111.932 419.78 111.226C420.328 110.519 420.484 109.734 420.406 108.871C420.249 108.008 419.78 107.223 419.075 106.673C417.588 105.496 415.552 105.731 414.456 107.066C413.908 107.772 413.751 108.557 413.83 109.42C413.986 110.284 414.456 111.069 415.161 111.618C415.709 112.168 416.491 112.403 417.274 112.403ZM416.883 106.516C417.509 106.516 418.136 106.752 418.684 107.144C419.31 107.615 419.623 108.243 419.78 108.95C419.858 109.656 419.701 110.362 419.31 110.912C418.918 111.461 418.292 111.775 417.509 111.854C416.805 111.932 416.1 111.697 415.474 111.226C414.847 110.755 414.534 110.127 414.378 109.42C414.299 108.714 414.456 108.008 414.847 107.458C415.317 106.83 416.1 106.516 416.883 106.516Z" fill="black"/>
<path d="M413.986 92.5443C412.968 93.8002 411.09 93.9572 409.759 92.9368C408.428 91.9164 408.115 90.0325 409.132 88.7766C410.15 87.5207 412.029 87.3637 413.36 88.3842C414.691 89.4046 415.004 91.2884 413.986 92.5443Z" fill="#ACD4F7"/>
<path d="M411.794 93.8787C411.872 93.8787 411.951 93.8787 412.107 93.8787C412.968 93.8002 413.751 93.4077 414.299 92.7013C415.395 91.2884 415.082 89.2476 413.595 88.0701C412.107 86.8927 410.072 87.1282 408.976 88.4626C408.428 89.1691 408.271 89.954 408.349 90.8174C408.506 91.6809 408.976 92.4658 409.68 93.0153C410.228 93.6432 411.011 93.8787 411.794 93.8787ZM413.751 92.3088C413.36 92.8583 412.734 93.1723 411.951 93.2508C411.246 93.3292 410.542 93.0938 409.915 92.6228C409.289 92.1518 408.976 91.5239 408.819 90.8174C408.741 90.111 408.897 89.4045 409.289 88.8551C410.15 87.7562 411.872 87.5992 413.047 88.5411C414.378 89.5615 414.691 91.2099 413.751 92.3088Z" fill="black"/>
<path d="M396.371 98.1959C395.354 99.4518 393.475 99.6088 392.144 98.5884C390.813 97.568 390.5 95.6841 391.518 94.4282C392.535 93.1723 394.414 93.0153 395.745 94.0358C397.076 95.0562 397.311 96.94 396.371 98.1959Z" fill="white"/>
<path d="M394.101 99.5304C395.041 99.5304 395.98 99.1379 396.528 98.353C397.076 97.6465 397.233 96.8616 397.154 95.9982C396.998 95.1347 396.528 94.3498 395.824 93.8003C395.119 93.2509 394.258 93.0154 393.397 93.0154C392.535 93.0939 391.753 93.4863 391.205 94.1928C390.657 94.8992 390.5 95.6842 390.578 96.5476C390.735 97.411 391.205 98.196 391.909 98.7454C392.614 99.2949 393.397 99.5304 394.101 99.5304ZM393.71 93.6433C394.336 93.6433 394.962 93.8788 395.51 94.2713C396.137 94.7422 396.45 95.3702 396.606 96.0766C396.685 96.7831 396.528 97.4895 396.137 98.039C395.276 99.1379 393.553 99.2949 392.379 98.353C391.753 97.882 391.439 97.2541 391.283 96.5476C391.205 95.8412 391.361 95.1347 391.753 94.5853C392.144 94.0358 392.77 93.7218 393.553 93.6433C393.553 93.6433 393.631 93.6433 393.71 93.6433Z" fill="black"/>
<path d="M415.787 106.595H415.865C416.022 106.516 416.1 106.359 416.1 106.202L412.655 93.5648C412.577 93.4078 412.42 93.3293 412.264 93.3293C412.107 93.4078 412.029 93.5648 412.029 93.7218L415.474 106.359C415.474 106.516 415.63 106.595 415.787 106.595Z" fill="black"/>
<path d="M396.763 95.2915H396.841L408.584 91.7593C408.741 91.6808 408.819 91.5238 408.819 91.3668C408.741 91.2098 408.584 91.1313 408.428 91.1313L396.685 94.6636C396.528 94.7421 396.45 94.8991 396.45 95.056C396.528 95.213 396.606 95.2915 396.763 95.2915Z" fill="black"/>
<path d="M500.729 33.1245C502.138 32.3395 503.939 32.9675 504.722 34.4589C505.505 35.9502 505.035 37.7556 503.704 38.5405C502.295 39.3255 500.494 38.6975 499.711 37.2061C498.929 35.7148 499.32 33.9094 500.729 33.1245Z" fill="white"/>
<path d="M503.313 32.732C503.234 32.732 503.156 32.6535 503.078 32.6535C502.217 32.3395 501.355 32.418 500.651 32.889C499.868 33.2814 499.398 33.9879 499.163 34.8513C498.928 35.7147 499.085 36.5782 499.476 37.3631C500.338 39.0115 502.373 39.6394 503.861 38.8545C504.643 38.462 505.113 37.7556 505.348 36.8921C505.583 36.0287 505.426 35.1653 505.035 34.3803C504.643 33.5954 504.017 33.0459 503.313 32.732ZM501.355 38.3835C500.807 38.1481 500.259 37.6771 499.946 37.1276C499.555 36.4997 499.477 35.7147 499.633 35.0083C499.79 34.3018 500.259 33.7524 500.807 33.4384C501.434 33.1244 502.138 33.0459 502.765 33.2814C503.469 33.5169 504.017 33.9879 504.409 34.6943C504.8 35.3223 504.878 36.1072 504.722 36.8137C504.565 37.5201 504.095 38.0696 503.547 38.3835C502.843 38.6975 502.06 38.6975 501.355 38.3835Z" fill="black"/>
<path d="M498.381 52.2769C499.79 51.492 501.59 52.1199 502.373 53.6113C503.156 55.1027 502.686 56.9081 501.356 57.693C499.946 58.4779 498.146 57.85 497.363 56.3586C496.502 54.9457 496.971 53.0619 498.381 52.2769Z" fill="#ACD4F7"/>
<path d="M500.964 51.9629C500.886 51.9629 500.807 51.8844 500.729 51.8844C499.868 51.5705 499.007 51.649 498.302 52.1199C496.736 52.9833 496.267 54.9457 497.128 56.5941C497.989 58.2424 500.025 58.8704 501.512 58.0855C502.295 57.693 502.765 56.9865 502.999 56.1231C503.234 55.2597 503.078 54.3962 502.686 53.6113C502.295 52.8264 501.669 52.2769 500.964 51.9629ZM498.537 52.5909C499.163 52.2769 499.868 52.1984 500.494 52.4339C501.199 52.6694 501.747 53.1403 502.138 53.8468C502.53 54.4747 502.608 55.2597 502.451 55.9661C502.295 56.6726 501.825 57.222 501.277 57.536C500.025 58.2424 498.381 57.693 497.676 56.2801C496.893 54.9457 497.284 53.2188 498.537 52.5909Z" fill="black"/>
<path d="M516.856 54.0823C518.266 53.2974 520.066 53.9253 520.849 55.4167C521.632 56.9081 521.162 58.7135 519.831 59.4984C518.422 60.2834 516.622 59.6554 515.839 58.164C514.978 56.6726 515.447 54.8673 516.856 54.0823Z" fill="white"/>
<path d="M519.44 53.7684C518.579 53.3759 517.561 53.3759 516.7 53.8469C515.917 54.2393 515.447 54.9458 515.212 55.8092C514.978 56.6726 515.134 57.5361 515.526 58.321C515.995 59.106 516.622 59.7339 517.483 59.9694C518.344 60.2834 519.205 60.2049 519.91 59.7339C520.693 59.3414 521.162 58.635 521.397 57.7716C521.632 56.9081 521.475 56.0447 521.084 55.2598C520.771 54.5533 520.145 54.0038 519.44 53.7684ZM517.483 59.3414C516.856 59.106 516.387 58.635 516.074 58.0855C515.682 57.4576 515.604 56.6726 515.76 55.9662C515.917 55.2598 516.387 54.7103 516.935 54.3963C518.187 53.6899 519.831 54.2393 520.536 55.6522C520.927 56.2802 521.006 57.0651 520.849 57.7716C520.693 58.478 520.223 59.0275 519.675 59.3414C519.049 59.6554 518.344 59.7339 517.718 59.4984C517.639 59.4199 517.561 59.3414 517.483 59.3414Z" fill="black"/>
<path d="M502.373 38.6975C502.138 38.619 501.982 38.776 501.982 38.933L500.181 51.8845C500.181 52.0415 500.259 52.1985 500.416 52.1985C500.573 52.1985 500.729 52.12 500.729 51.963L502.53 39.0115C502.608 38.8545 502.53 38.6975 502.373 38.6975Z" fill="black"/>
<path d="M515.369 56.6727H515.291L503.078 55.1813C502.921 55.1813 502.765 55.2598 502.765 55.4168C502.765 55.5737 502.843 55.7307 503 55.7307L515.212 57.2221C515.369 57.2221 515.526 57.1436 515.526 56.9866C515.526 56.8296 515.447 56.6727 515.369 56.6727Z" fill="black"/>
<path d="M317.066 25.0395C317.222 25.0395 317.301 24.961 317.379 24.8825L320.119 19.8589C320.197 19.7019 320.119 19.4665 319.963 19.388C319.806 19.3095 319.571 19.388 319.493 19.545L317.066 24.0191C316.518 22.9987 315.892 22.0568 315.187 21.1933C315.03 21.0363 314.874 21.0363 314.717 21.1148C314.561 21.2718 314.561 21.4288 314.639 21.5858C315.422 22.6062 316.126 23.7051 316.753 24.8825C316.831 24.961 316.909 24.961 317.066 25.0395Z" fill="black"/>
<path d="M317.066 38.2265C317.222 38.2265 317.301 38.1481 317.379 38.0696L320.119 33.0459C320.197 32.889 320.119 32.6535 319.963 32.575C319.806 32.4965 319.571 32.575 319.493 32.732L317.066 37.2061C316.518 36.1857 315.892 35.2438 315.187 34.3803C315.03 34.2234 314.874 34.2234 314.717 34.3019C314.561 34.4588 314.561 34.6158 314.639 34.7728C315.422 35.7932 316.126 36.8921 316.753 38.0696C316.831 38.1481 316.909 38.2265 317.066 38.2265Z" fill="black"/>
<path d="M316.048 51.492C316.205 51.492 316.283 51.4136 316.361 51.3351L319.101 46.3114C319.18 46.1545 319.101 45.919 318.945 45.8405C318.788 45.762 318.553 45.8405 318.475 45.9975L316.048 50.4716C315.5 49.4512 314.874 48.5093 314.169 47.6458C314.013 47.4889 313.856 47.4889 313.7 47.5674C313.543 47.7243 313.543 47.8813 313.621 48.0383C314.404 49.0587 315.109 50.1577 315.735 51.3351C315.813 51.4136 315.892 51.492 316.048 51.492Z" fill="black"/>
<path d="M329.122 25.1966C335.777 25.1966 342.431 25.0396 349.007 24.7256C349.164 24.7256 349.321 24.5686 349.321 24.3331C349.321 24.1762 349.164 24.0192 348.929 24.0192C341.022 24.3331 333.037 24.4901 325.13 24.4116C324.973 24.4116 324.816 24.5686 324.738 24.7256C324.738 24.8826 324.895 25.0396 325.051 25.0396C326.461 25.1966 327.791 25.1966 329.122 25.1966Z" fill="black"/>
<path d="M329.122 38.2265C335.777 38.2265 342.431 38.0695 349.007 37.7555C349.164 37.7555 349.321 37.5985 349.321 37.363C349.321 37.2061 349.164 37.0491 348.929 37.0491C341.022 37.363 333.037 37.52 325.13 37.4415C324.973 37.4415 324.816 37.5985 324.738 37.7555C324.738 37.9125 324.895 38.0695 325.051 38.0695C326.461 38.2265 327.791 38.2265 329.122 38.2265Z" fill="black"/>
<path d="M329.514 51.2565C336.168 51.2565 342.823 51.0995 349.399 50.7855C349.555 50.7855 349.712 50.6286 349.712 50.3931C349.712 50.2361 349.555 50.0791 349.32 50.0791C341.413 50.3931 333.428 50.5501 325.521 50.4716C325.364 50.4716 325.208 50.6286 325.13 50.7855C325.13 50.9425 325.286 51.0995 325.443 51.0995C326.852 51.2565 328.183 51.2565 329.514 51.2565Z" fill="black"/>
<path d="M22.7818 65.1501C22.6252 63.1877 22.0772 61.1469 21.1377 59.3415C20.668 58.3996 20.0417 57.5362 19.3371 56.7512C18.5542 55.9663 17.6148 55.3383 16.7536 54.6319C14.0135 52.3556 12.2129 49.1373 11.8215 45.8406C11.5083 43.2503 11.1169 40.346 11.7432 37.7557C12.2129 35.8718 15.501 30.6127 17.4582 28.9644C20.5897 26.3741 25.287 24.7257 29.5145 24.1762C33.7421 23.6268 38.2045 24.4117 41.884 26.4526C46.5813 29.1214 49.7128 33.7525 50.4174 38.7761C51.122 43.7212 49.3996 48.8233 46.0333 52.8265C44.6241 54.4749 42.98 55.9663 41.6491 57.6147C39.692 59.891 38.3611 62.6383 37.6565 65.3071C35.8558 65.621 34.0552 65.621 32.3329 65.5425C30.8454 65.5425 29.2797 65.5425 27.7922 65.5425C26.0699 65.4641 24.4258 65.4641 22.7818 65.1501Z" fill="white"/>
<path d="M21.8423 65.5425C27.2442 66.0134 32.8026 66.0134 38.2045 65.5425C38.5176 69.7027 38.8308 72.2145 37.5782 76.2177C36.9518 78.18 35.8558 80.1424 33.8986 81.1628C31.55 82.3402 28.6533 81.7122 26.0698 81.0843C25.0521 80.8488 24.0344 80.5348 23.2515 79.9854C21.6074 78.7295 21.5291 76.6101 21.6074 74.6478C21.6857 70.8801 21.764 68.8392 21.8423 65.5425Z" fill="#ACD4F7"/>
<g opacity="0.1294">
<path d="M50.8088 40.5814C50.4174 40.1889 49.5562 40.2674 49.243 40.7384C49.0082 41.2093 49.0865 40.9738 49.0082 41.6803C49.0082 41.7588 49.0082 41.8373 49.0082 41.9158C48.9299 42.2297 48.695 43.0932 48.6167 43.3287C48.7733 43.0932 48.7733 43.0932 48.6167 43.3287C47.8339 45.134 47.6773 45.6835 46.7378 47.0964C46.503 47.4888 46.0332 48.5093 45.1721 49.4512C44.1543 50.7071 41.2577 53.1404 39.6136 55.2597C39.1439 55.8877 38.0479 57.2221 37.8913 57.4576C37.265 58.164 36.6387 58.8705 36.169 59.6554C35.2295 61.3038 35.3078 61.2253 34.7598 62.4027C34.4466 63.1876 33.8986 64.208 33.8986 64.993C33.8986 65.0715 33.8986 65.15 33.8986 65.15C33.5855 65.6209 33.4289 66.1704 33.6638 66.7983C34.2118 68.3682 34.2118 70.2521 34.0552 73.0779C33.8986 76.0606 34.1335 74.9617 33.2723 77.6305C32.8026 78.9649 33.1157 78.18 32.4112 79.4359C32.2546 79.7498 31.9414 80.0638 31.9414 80.3778C31.7849 81.1627 32.2546 81.7122 32.9592 82.0262C33.1157 81.9477 33.2723 81.8692 33.4289 81.7122C34.1335 81.2412 34.7598 80.7703 35.4644 80.2993C35.7775 80.0638 36.169 79.8283 36.4821 79.5929C37.0301 78.4939 37.4216 77.395 37.7347 76.2176C38.2045 73.7843 38.361 73.3133 38.8308 70.5661C38.9873 69.3886 38.9873 68.2112 38.8308 67.0338C38.7525 66.2489 38.6742 65.4639 38.1262 64.836C37.9696 64.836 37.813 64.836 37.6564 64.9145C37.4216 64.9145 37.1084 64.993 36.8736 64.993C38.0479 61.5393 38.9873 59.5769 41.0228 57.0651C42.3537 55.5737 43.9195 54.2393 45.3287 52.8264C46.6595 51.5705 47.9122 50.1576 48.8516 48.5878C49.3996 47.4888 49.243 47.5673 49.6345 46.7824C49.7128 46.6254 49.6345 46.7824 49.5562 46.9394C49.7128 46.5469 49.9476 46.1544 50.1042 45.762C50.4174 45.134 50.5739 44.5061 50.6522 43.8781C50.8871 42.6222 51.4351 41.2878 50.8088 40.5814Z" fill="black"/>
</g>
<g opacity="0.1294">
<path d="M34.6815 62.7167C34.7607 62.6382 34.7607 62.5597 34.7607 62.4812V62.4027C34.7607 62.5597 34.6815 62.6382 34.6815 62.7167Z" fill="black"/>
</g>
<path d="M30.6106 82.4187C32.4895 82.4187 34.9164 82.0262 36.4039 80.2994C37.4999 79.122 37.813 77.5521 38.0479 76.1392C38.8308 71.822 39.0657 70.0952 38.5959 65.5425C38.5959 65.464 38.5176 65.3855 38.4394 65.307C38.4394 65.15 38.3611 65.15 38.2828 65.15C35.3861 65.3855 24.8173 65.2285 21.6858 64.9146C21.6075 64.9146 21.4509 64.9146 21.3726 64.993C21.2943 65.0715 21.2943 65.15 21.2943 65.2285C21.2943 67.1124 21.2943 68.6038 21.2943 70.0167C21.2943 71.508 21.2943 72.9209 21.2943 74.8048C21.2943 75.8252 21.2943 77.0026 21.764 78.1015C23.0166 81.0843 26.931 81.9477 28.5751 82.1832C29.0448 82.3402 29.7494 82.4187 30.6106 82.4187ZM37.9696 65.935C38.2828 70.1736 38.0479 71.9005 37.3433 76.0607C37.1085 77.3951 36.7953 78.808 35.8559 79.9069C33.8987 82.1047 30.1408 81.8692 28.6534 81.6338C27.1659 81.3983 23.4864 80.6133 22.3903 78.023C21.9989 77.0811 21.9989 76.0607 21.9989 75.0403C21.9989 73.1564 21.9989 71.665 21.9989 70.2521C21.9989 68.9177 21.9989 67.5049 21.9989 65.8565C25.4436 66.0135 34.7598 66.092 37.9696 65.935Z" fill="black"/>
<path d="M37.1867 65.778C37.3433 65.778 37.4999 65.621 37.4999 65.464C38.2045 61.6178 41.1011 58.3995 43.9978 55.3383C46.8161 52.3555 49.6345 49.2943 50.574 45.448C51.0437 43.4072 51.0437 38.3836 49.3214 34.2234C48.0687 31.0837 46.2681 28.7288 43.9195 27.159C39.6919 24.3332 32.3329 22.3708 26.5396 23.9407C21.0594 25.4321 16.597 28.2579 13.9352 31.9471C11.43 35.3223 10.4123 39.561 10.882 43.7997C11.3517 47.8029 13.2306 51.6491 16.2056 55.0243C16.597 55.4953 17.0667 55.9662 17.4582 56.3587C18.3194 57.2221 19.1805 58.1641 19.8851 59.1845C21.0594 60.9114 21.764 62.9522 21.8423 65.0715C21.8423 65.2285 21.9989 65.3855 22.2337 65.3855C22.3903 65.3855 22.5469 65.2285 22.5469 64.993C22.4686 62.7952 21.764 60.5974 20.5114 58.7135C19.8068 57.6931 18.8674 56.7512 18.0845 55.8092C17.693 55.3383 17.2233 54.9458 16.8319 54.4749C13.9352 51.1781 12.2129 47.4889 11.7432 43.6427C11.2734 39.561 12.2912 35.4793 14.6398 32.2611C17.2233 28.7288 21.6074 25.9816 26.931 24.4902C32.4895 22.9203 39.6137 24.8826 43.7629 27.6299C45.955 29.0428 47.6773 31.3191 48.9299 34.3019C50.574 38.3836 50.6522 43.1717 50.1042 45.1341C49.2431 48.7448 46.4247 51.8061 43.6846 54.7103C40.788 57.8501 37.7347 61.0683 37.0302 65.15C36.7953 65.5425 36.9519 65.778 37.1867 65.778Z" fill="black"/>
<path d="M32.7244 65.5425C32.8809 65.5425 33.0375 65.3856 33.1158 65.2286V65.1501C33.1158 61.3039 33.3507 57.2222 33.6638 53.1405C33.8204 51.3351 33.977 49.6868 34.525 48.1954C35.2296 48.2739 35.9342 48.1954 36.6388 47.9599C37.9697 47.4889 39.144 46.4685 40.0051 44.8986C40.3183 44.3492 40.4749 43.5642 40.1617 42.9363C40.0051 42.6223 39.692 42.3868 39.3005 42.3868C38.8308 42.3083 38.4394 42.5438 38.1262 42.7793C36.4039 43.8782 34.9947 45.4481 34.1335 47.2535C34.1335 47.332 34.0553 47.4104 34.0553 47.4889C32.8809 47.2535 31.7849 46.547 31.0803 45.7621C30.8455 45.5266 30.6889 45.2911 30.5323 44.9771C31.3152 43.4858 31.7849 41.9159 32.0981 40.2675C32.3329 39.0116 32.5678 37.1277 31.55 35.6364C31.3935 35.4794 31.2369 35.2439 30.9237 35.1654C30.5323 35.0869 30.0626 35.2439 29.6711 35.7149C28.4968 37.2847 28.4968 39.2471 28.5751 40.5815C28.6534 42.3868 29.0448 43.7997 29.7494 44.9771C29.5146 45.3696 29.2797 45.7621 29.0448 46.233C28.1837 47.6459 27.1659 48.3524 26.1482 48.4309C25.6785 48.5094 25.2087 48.3524 24.739 48.1954C24.1127 46.4685 23.1732 44.7417 21.8423 43.3288C21.4509 42.9363 20.9812 42.4653 20.3549 42.3083C19.7286 42.0729 18.8674 42.1514 18.3977 42.7793C18.0062 43.2503 18.0062 43.9567 18.5543 44.8201C19.7286 46.6255 21.7641 47.7244 23.643 48.5094C23.7995 48.5879 24.0344 48.6663 24.191 48.7448C24.6607 50.0007 24.8956 51.2567 25.2087 52.5126C26.0699 56.6727 26.383 60.8329 26.3048 65.0716C26.3048 65.2286 26.4613 65.4641 26.6179 65.4641C26.7745 65.4641 27.0093 65.3071 27.0093 65.1501C27.0876 60.9114 26.7745 56.5942 25.9133 52.4341C25.6785 51.3351 25.4436 50.2362 25.0522 49.1373C25.4436 49.2158 25.835 49.2943 26.3048 49.2158C27.5574 49.1373 28.7317 48.2739 29.7494 46.6255C29.906 46.3115 30.1409 45.9976 30.2974 45.6836C30.454 45.8406 30.5323 45.9976 30.6889 46.1545C31.4718 47.018 32.6461 47.8029 33.8987 48.1169C33.3507 49.6868 33.1941 51.3351 33.0375 53.1405C32.5678 57.2222 32.4112 61.2254 32.3329 65.1501V65.2286C32.3329 65.3856 32.4895 65.5425 32.7244 65.5425ZM19.7286 42.8578C19.8852 42.8578 20.0417 42.8578 20.12 42.9363C20.5897 43.0933 20.9812 43.4858 21.2943 43.7997C22.3904 44.9771 23.2515 46.39 23.7995 47.8814C22.0772 47.0965 20.1983 46.0761 19.1023 44.5062C18.9457 44.2707 18.6325 43.6427 18.9457 43.2503C19.1023 42.9363 19.4154 42.8578 19.7286 42.8578ZM39.144 43.0933C39.3788 43.0933 39.4571 43.1718 39.5354 43.3288C39.692 43.6427 39.6137 44.1922 39.3788 44.5847C38.596 45.9976 37.5782 46.9395 36.4039 47.332C35.8559 47.4889 35.3079 47.5674 34.8381 47.4889C35.621 45.8406 36.8736 44.3492 38.5177 43.3288C38.7525 43.2503 38.9874 43.0933 39.144 43.0933ZM30.6889 35.7933C30.7672 35.7933 30.7672 35.7933 30.6889 35.7933C30.8455 35.7933 30.9237 35.9503 30.9237 36.0288C31.55 36.9708 31.7066 38.3051 31.3935 40.1105C31.1586 41.5234 30.6889 42.8578 30.0626 44.1922C29.5928 43.1718 29.358 41.9944 29.2014 40.503C29.0448 38.5406 29.358 37.1277 30.1409 36.1073C30.3757 35.9503 30.6106 35.7933 30.6889 35.7933Z" fill="black"/>
<path d="M53.1575 28.5719C53.2358 28.5719 53.2358 28.5719 53.3141 28.5719C58.7159 25.8246 58.7159 25.8246 58.7159 25.5106C58.7159 25.3536 58.7159 25.2751 58.5594 25.1966C58.4028 25.1181 58.1679 24.9612 57.6982 25.1966L52.9226 27.9439C52.7661 28.0224 52.6878 28.2579 52.7661 28.4149C52.9226 28.5719 53.0792 28.5719 53.1575 28.5719Z" fill="black"/>
<path d="M22.9383 19.3881C23.0166 19.3881 23.0166 19.3881 23.0949 19.3881C23.2515 19.3096 23.3298 19.0741 23.2515 18.9171L20.9029 13.5795C20.8246 13.4225 20.5897 13.344 20.4331 13.4225C20.2766 13.501 20.1983 13.7365 20.2766 13.8935L22.6252 19.2311C22.6252 19.3096 22.7818 19.3881 22.9383 19.3881Z" fill="black"/>
<path d="M7.28085 31.2406C7.43743 31.2406 7.594 31.1621 7.594 31.0051C7.67229 30.8481 7.594 30.6127 7.43742 30.6127C1.87899 28.9643 1.72241 29.1213 1.48755 29.3568C1.40926 29.4352 1.33097 29.5922 1.40926 29.7492C1.48755 30.1417 1.87899 30.2202 2.03556 30.2202L7.28085 31.2406Z" fill="black"/>
<path d="M0.391378 51.963C0.469666 51.963 0.469666 51.963 0.547954 51.963L5.94982 49.5297C6.10639 49.4512 6.18468 49.2157 6.10639 49.0588C6.02811 48.9018 5.79324 48.8233 5.63667 48.9018L0.234803 51.3351C-6.09998e-05 51.4136 -0.0783489 51.5706 -6.09923e-05 51.806C0.0782269 51.8845 0.234803 51.963 0.391378 51.963Z" fill="black"/>
<path d="M38.9091 19.231C39.0657 19.231 39.2222 19.1526 39.2222 18.9956L41.1011 13.972C41.1794 13.815 41.1011 13.5795 40.8663 13.501C40.7097 13.4225 40.4748 13.501 40.3965 13.7365L38.5176 18.7601C38.4394 18.9171 38.5176 19.1526 38.7525 19.231C38.7525 19.231 38.8308 19.231 38.9091 19.231Z" fill="black"/>
<path d="M59.9685 48.1168C60.1251 48.1168 60.2034 48.0383 60.2817 47.8813C60.36 47.7244 60.2817 47.4889 60.1251 47.4104L54.8798 45.291C54.7233 45.2126 54.4884 45.291 54.4101 45.448C54.3318 45.605 54.4101 45.8405 54.5667 45.919L59.812 48.0383C59.8903 48.0383 59.9685 48.1168 59.9685 48.1168Z" fill="black"/>
<path d="M133.559 22.6848C133.559 21.2719 134.734 20.173 136.064 20.173C137.474 20.173 138.57 21.3504 138.57 22.6848C138.57 24.0977 137.395 25.1966 136.064 25.1966C134.655 25.1966 133.559 24.0977 133.559 22.6848Z" fill="white"/>
<path d="M136.064 25.5891C137.63 25.5891 138.961 24.2547 138.961 22.6848C138.961 21.1149 137.63 19.7805 136.064 19.7805C134.499 19.7805 133.168 21.1149 133.168 22.6848C133.168 24.2547 134.499 25.5891 136.064 25.5891ZM136.064 20.487C137.239 20.487 138.256 21.5074 138.256 22.6848C138.256 23.8622 137.239 24.8826 136.064 24.8826C134.89 24.8826 133.872 23.8622 133.872 22.6848C133.872 21.5074 134.89 20.487 136.064 20.487Z" fill="black"/>
<path d="M328.104 78.7293C328.104 77.3164 329.279 76.2175 330.61 76.2175C332.019 76.2175 333.115 77.3949 333.115 78.7293C333.115 80.1422 331.941 81.2411 330.61 81.2411C329.201 81.2411 328.104 80.0637 328.104 78.7293Z" fill="white"/>
<path d="M330.61 81.5551C332.176 81.5551 333.506 80.2207 333.506 78.6509C333.506 77.081 332.176 75.7466 330.61 75.7466C329.044 75.7466 327.713 77.081 327.713 78.6509C327.713 80.2992 329.044 81.5551 330.61 81.5551ZM330.61 76.5315C331.784 76.5315 332.802 77.5519 332.802 78.7294C332.802 79.9068 331.784 80.9272 330.61 80.9272C329.435 80.9272 328.418 79.9068 328.418 78.7294C328.418 77.4735 329.435 76.5315 330.61 76.5315Z" fill="black"/>
<path d="M337.969 107.144C337.969 104.397 340.161 102.121 342.744 102.121C345.406 102.121 347.52 104.318 347.52 107.144C347.52 109.97 345.328 112.168 342.744 112.168C340.083 112.089 337.969 109.892 337.969 107.144Z" fill="#ACD4F7"/>
<path d="M342.744 112.482C345.563 112.482 347.911 110.049 347.911 107.144C347.911 104.161 345.563 101.807 342.744 101.807C339.926 101.807 337.577 104.24 337.577 107.144C337.577 110.049 339.926 112.482 342.744 112.482ZM342.744 102.435C345.171 102.435 347.207 104.554 347.207 107.066C347.207 109.656 345.171 111.697 342.744 111.697C340.317 111.697 338.282 109.578 338.282 107.066C338.282 104.554 340.317 102.435 342.744 102.435Z" fill="black"/>
<path d="M89.1699 118.133C89.1699 116.72 90.3442 115.622 91.6751 115.622C93.006 115.622 94.1803 116.799 94.1803 118.133C94.1803 119.546 93.006 120.645 91.6751 120.645C90.3442 120.645 89.1699 119.546 89.1699 118.133Z" fill="white"/>
<path d="M91.6751 121.038C93.2408 121.038 94.5717 119.703 94.5717 118.133C94.5717 116.563 93.2408 115.229 91.6751 115.229C90.1093 115.229 88.7784 116.563 88.7784 118.133C88.7784 119.703 90.1093 121.038 91.6751 121.038ZM91.6751 115.935C92.8494 115.935 93.8672 116.956 93.8672 118.133C93.8672 119.311 92.8494 120.331 91.6751 120.331C90.5008 120.331 89.483 119.311 89.483 118.133C89.483 116.877 90.5008 115.935 91.6751 115.935Z" fill="black"/>
<path d="M137.787 94.9779C137.787 93.565 138.961 92.4661 140.292 92.4661C141.701 92.4661 142.797 93.6435 142.797 94.9779C142.797 96.3123 141.623 97.4897 140.292 97.4897C138.883 97.4897 137.787 96.3908 137.787 94.9779Z" fill="white"/>
<path d="M140.292 97.882C141.858 97.882 143.189 96.5476 143.189 94.9778C143.189 93.4079 141.858 92.0735 140.292 92.0735C138.726 92.0735 137.395 93.4079 137.395 94.9778C137.395 96.5476 138.726 97.882 140.292 97.882ZM140.292 92.7799C141.466 92.7799 142.484 93.8004 142.484 94.9778C142.484 96.1552 141.466 97.1756 140.292 97.1756C139.118 97.1756 138.1 96.1552 138.1 94.9778C138.1 93.8004 139.118 92.7799 140.292 92.7799Z" fill="black"/>
<path d="M558.819 68.5252C558.819 67.3478 559.758 66.4059 560.933 66.4059C562.107 66.4059 563.046 67.3478 563.046 68.5252C563.046 69.7026 562.107 70.6446 560.933 70.6446C559.758 70.7231 558.819 69.7026 558.819 68.5252Z" fill="white"/>
<path d="M561.011 71.037C562.342 71.037 563.438 69.9381 563.438 68.6037C563.438 67.2693 562.342 66.1704 561.011 66.1704C559.68 66.1704 558.584 67.2693 558.584 68.6037C558.584 69.9381 559.602 71.037 561.011 71.037ZM561.011 66.7199C562.029 66.7199 562.89 67.5833 562.89 68.6037C562.89 69.6241 562.029 70.4876 561.011 70.4876C559.993 70.4876 559.132 69.6241 559.132 68.6037C559.132 67.5048 559.993 66.7199 561.011 66.7199Z" fill="black"/>
<path d="M631.627 101.179C633.616 101.179 635.228 99.5621 635.228 97.568C635.228 95.5739 633.616 93.9573 631.627 93.9573C629.638 93.9573 628.025 95.5739 628.025 97.568C628.025 99.5621 629.638 101.179 631.627 101.179Z" fill="white"/>
<path d="M631.627 101.493C633.819 101.493 635.541 99.7658 635.541 97.568C635.541 95.3702 633.819 93.6433 631.627 93.6433C629.434 93.6433 627.712 95.3702 627.712 97.568C627.712 99.7658 629.513 101.493 631.627 101.493ZM631.627 94.2713C633.427 94.2713 634.915 95.7626 634.915 97.568C634.915 99.3734 633.427 100.865 631.627 100.865C629.826 100.865 628.338 99.3734 628.338 97.568C628.338 95.7626 629.826 94.2713 631.627 94.2713Z" fill="black"/>
<path d="M61.7692 80.1424C61.7692 77.7875 63.7264 75.8252 66.075 75.8252C68.4236 75.8252 70.3808 77.709 70.3808 80.1424C70.3808 82.4972 68.4236 84.4595 66.075 84.4595C63.7264 84.4595 61.7692 82.4972 61.7692 80.1424Z" fill="white"/>
<path d="M66.075 84.7735C68.6585 84.7735 70.694 82.6542 70.694 80.1424C70.694 77.5521 68.5803 75.5112 66.075 75.5112C63.4915 75.5112 61.4561 77.6306 61.4561 80.1424C61.4561 82.7327 63.5698 84.7735 66.075 84.7735ZM66.075 76.2177C68.2671 76.2177 69.9894 77.9445 69.9894 80.1424C69.9894 82.3402 68.1888 84.0671 66.075 84.0671C63.883 84.0671 62.1606 82.3402 62.1606 80.1424C62.1606 78.023 63.9613 76.2177 66.075 76.2177Z" fill="black"/>
<path d="M175.365 79.5929C175.521 79.5929 175.678 79.4359 175.678 79.2789L175.991 66.7199C175.991 66.5629 175.835 66.3274 175.678 66.3274C175.521 66.3274 175.287 66.4844 175.287 66.6414L174.973 79.2004C174.973 79.4359 175.13 79.5929 175.365 79.5929Z" fill="black"/>
<path d="M182.724 73.4704C182.881 73.4704 183.037 73.3134 183.037 73.1564C183.037 72.9994 182.881 72.7639 182.724 72.7639L171.059 72.2145C170.902 72.2145 170.668 72.3715 170.668 72.5285C170.668 72.6854 170.824 72.9209 170.981 72.9209L182.724 73.4704Z" fill="black"/>
<path d="M683.14 50.2361C683.297 50.2361 683.453 50.0792 683.453 49.9222C683.61 47.1749 683.61 44.4276 683.453 41.7588C683.453 41.6018 683.297 41.4448 683.14 41.4448C682.983 41.4448 682.827 41.6018 682.827 41.7588C682.983 44.4276 682.983 47.1749 682.827 49.9222C682.827 50.0792 682.983 50.2361 683.14 50.2361Z" fill="black"/>
<path d="M689.716 50.1576C689.873 50.1576 690.029 50.0006 690.029 49.8436C690.186 45.291 690.264 40.6598 690.343 36.1072C690.343 35.9502 690.186 35.7932 690.029 35.7932C689.873 35.7932 689.716 35.9502 689.716 36.1072C689.638 40.6598 689.56 45.291 689.403 49.8436C689.403 50.0791 689.56 50.1576 689.716 50.1576Z" fill="black"/>
<path d="M703.338 50.1576C703.495 50.1576 703.651 50.0006 703.651 49.8436C703.808 43.9566 703.886 37.9911 703.965 32.104C703.965 31.947 703.808 31.79 703.651 31.79C703.495 31.79 703.338 31.947 703.338 32.104C703.26 37.9911 703.182 43.9566 703.025 49.8436C703.103 50.0791 703.182 50.1576 703.338 50.1576Z" fill="black"/>
<path d="M696.762 50.4716C696.919 50.4716 697.075 50.3146 697.075 50.1576C696.84 46.7824 696.84 43.4071 696.997 40.0319C696.997 39.8749 696.84 39.7179 696.684 39.7179C696.527 39.7179 696.371 39.8749 696.371 40.0319C696.214 43.4071 696.214 46.8608 696.449 50.2361C696.527 50.3146 696.605 50.4716 696.762 50.4716Z" fill="black"/>
<path d="M123.538 74.0982C123.695 74.0982 123.851 73.9412 123.851 73.7843C124.086 69.6241 124.086 65.4639 123.851 61.3037C123.851 61.1467 123.695 60.9897 123.46 60.9897C123.303 60.9897 123.147 61.1467 123.147 61.3822C123.382 65.4639 123.382 69.6241 123.147 73.7843C123.225 73.9412 123.303 74.0982 123.538 74.0982Z" fill="black"/>
<path d="M131.367 74.0198C131.524 74.0198 131.68 73.8628 131.68 73.7058C131.837 66.7983 131.993 59.7339 131.993 52.8264C131.993 52.6694 131.837 52.434 131.68 52.434C131.524 52.434 131.367 52.5909 131.289 52.7479C131.21 59.6554 131.132 66.6414 130.976 73.6273C130.976 73.8628 131.132 74.0198 131.367 74.0198Z" fill="black"/>
<path d="M139.666 74.4908C139.901 74.4908 140.057 74.3338 139.979 74.0983C139.744 68.9962 139.744 63.8156 139.901 58.7135C139.901 58.5565 139.744 58.321 139.587 58.321C139.431 58.321 139.196 58.478 139.196 58.635C139.039 63.7371 139.039 68.9962 139.274 74.0983C139.352 74.3338 139.509 74.4908 139.666 74.4908Z" fill="black"/>
<path d="M100.991 23.4696C101.07 23.4696 101.148 23.4696 101.226 23.3911C101.383 23.2341 101.383 22.9987 101.226 22.9202L95.981 18.0535C95.8244 17.8965 95.5895 17.8965 95.5112 18.0535C95.3547 18.2105 95.3547 18.446 95.5112 18.5245L100.757 23.3911C100.835 23.4696 100.913 23.4696 100.991 23.4696Z" fill="black"/>
<path d="M95.3546 24.961C95.4329 24.961 95.5895 24.8825 95.6678 24.804C97.5467 22.2922 99.5822 19.9374 101.853 17.7396C102.009 17.5826 102.009 17.3471 101.853 17.2686C101.696 17.1116 101.461 17.1116 101.383 17.2686C99.1125 19.4664 96.9987 21.8998 95.1198 24.4116C95.0415 24.5686 95.0415 24.804 95.1981 24.8825C95.1981 24.961 95.2764 24.961 95.3546 24.961Z" fill="black"/>
<path d="M95.3546 24.961C95.4329 24.961 95.5895 24.8825 95.6678 24.804C97.5467 22.2922 99.5822 19.9374 101.853 17.7396C102.009 17.5826 102.009 17.3471 101.853 17.2686C101.696 17.1116 101.461 17.1116 101.383 17.2686C99.1125 19.4664 96.9987 21.8998 95.1198 24.4116C95.0415 24.5686 95.0415 24.804 95.1981 24.8825C95.1981 24.961 95.2764 24.961 95.3546 24.961Z" fill="black"/>
<path d="M705.217 73.9414C705.295 73.9414 705.374 73.9414 705.452 73.8629C705.53 73.7059 705.53 73.5489 705.452 73.4704L701.068 69.3102C700.911 69.2317 700.755 69.2317 700.676 69.3102C700.598 69.4672 700.598 69.6242 700.676 69.7027L705.06 73.8629C705.06 73.8629 705.139 73.9414 705.217 73.9414Z" fill="black"/>
<path d="M700.442 75.1187C700.52 75.1187 700.598 75.0402 700.676 74.9617C702.242 72.8424 704.043 70.8015 705.922 68.9962C706.078 68.9177 706.078 68.6822 705.922 68.6037C705.843 68.4467 705.609 68.4467 705.53 68.6037C703.573 70.4876 701.851 72.4499 700.207 74.6477C700.128 74.8047 700.128 74.9617 700.285 75.0402C700.285 75.1187 700.363 75.1187 700.442 75.1187Z" fill="black"/>
<path d="M700.442 75.1187C700.52 75.1187 700.598 75.0402 700.676 74.9617C702.242 72.8424 704.043 70.8015 705.922 68.9962C706.078 68.9177 706.078 68.6822 705.922 68.6037C705.843 68.4467 705.609 68.4467 705.53 68.6037C703.573 70.4876 701.851 72.4499 700.207 74.6477C700.128 74.8047 700.128 74.9617 700.285 75.0402C700.285 75.1187 700.363 75.1187 700.442 75.1187Z" fill="black"/>
<path d="M233.141 57.9285C233.22 57.9285 233.298 57.9285 233.376 57.85C233.533 57.693 233.533 57.4575 233.376 57.379L228.131 52.5124C227.974 52.3554 227.739 52.3554 227.661 52.5124C227.505 52.6694 227.505 52.9049 227.661 52.9834L232.906 57.85C232.985 57.85 233.063 57.9285 233.141 57.9285Z" fill="black"/>
<path d="M227.426 59.4199C227.505 59.4199 227.661 59.3414 227.739 59.2629C229.618 56.7511 231.654 54.3963 233.924 52.1984C234.081 52.0415 234.081 51.806 233.924 51.7275C233.768 51.5705 233.533 51.5705 233.454 51.7275C231.184 53.9253 229.07 56.3586 227.191 58.8704C227.113 59.0274 227.113 59.2629 227.27 59.3414C227.348 59.3414 227.426 59.4199 227.426 59.4199Z" fill="black"/>
<path d="M227.426 59.4199C227.505 59.4199 227.661 59.3414 227.739 59.2629C229.618 56.7511 231.654 54.3963 233.924 52.1984C234.081 52.0415 234.081 51.806 233.924 51.7275C233.768 51.5705 233.533 51.5705 233.454 51.7275C231.184 53.9253 229.07 56.3586 227.191 58.8704C227.113 59.0274 227.113 59.2629 227.27 59.3414C227.348 59.3414 227.426 59.4199 227.426 59.4199Z" fill="black"/>
<path d="M406.862 47.9597C406.94 47.9597 407.019 47.9597 407.097 47.8812C407.175 47.7242 407.175 47.5672 407.097 47.4887L400.677 42.0727C400.521 41.9942 400.364 41.9942 400.286 42.0727C400.207 42.2297 400.207 42.3866 400.286 42.4651L406.705 47.8812C406.705 47.9597 406.784 47.9597 406.862 47.9597Z" fill="black"/>
<path d="M399.894 49.2157C399.973 49.2157 400.051 49.1372 400.129 49.0587L405.844 41.1308C405.923 40.9738 405.923 40.8168 405.766 40.7383C405.609 40.6598 405.453 40.6598 405.375 40.8168L399.66 48.7447C399.581 48.9017 399.581 49.0587 399.738 49.1372C399.738 49.2157 399.816 49.2157 399.894 49.2157Z" fill="black"/>
<path d="M272.755 85.3231C271.111 84.3811 270.563 82.2618 271.581 80.4564C272.598 78.6511 274.712 78.0231 276.356 78.8866C278 79.8285 278.548 81.9478 277.531 83.7532C276.513 85.5585 274.399 86.1865 272.755 85.3231Z" fill="#ACD4F7"/>
<path d="M274.321 86.0295C275.73 86.0295 277.061 85.2446 277.844 83.9102C278.392 82.9682 278.548 81.8693 278.235 80.9274C278 79.907 277.374 79.122 276.435 78.5726C274.634 77.5521 272.285 78.3371 271.189 80.2209C270.641 81.1629 270.485 82.2618 270.798 83.2037C271.033 84.2241 271.659 85.0091 272.598 85.5585C273.146 85.951 273.694 86.0295 274.321 86.0295ZM274.712 78.808C275.182 78.808 275.652 78.8865 276.121 79.2005C276.826 79.593 277.374 80.2994 277.531 81.0844C277.765 81.9478 277.609 82.8112 277.217 83.5962C276.356 85.1661 274.399 85.794 272.912 85.0091C272.207 84.6166 271.659 83.9102 271.502 83.1252C271.268 82.2618 271.424 81.3983 271.816 80.6134C272.442 79.5145 273.616 78.808 274.712 78.808Z" fill="black"/>
<path d="M254.436 62.6383C252.792 61.6963 252.244 59.577 253.261 57.7716C254.279 55.9663 256.393 55.3383 258.037 56.2017C259.681 57.1437 260.229 59.263 259.211 61.0684C258.272 62.8737 256.08 63.5802 254.436 62.6383Z" fill="white"/>
<path d="M256.001 63.4232C256.393 63.4232 256.784 63.3447 257.176 63.2662C258.193 62.9522 258.976 62.2458 259.524 61.3038C260.072 60.3619 260.229 59.263 259.916 58.3211C259.681 57.3006 259.055 56.5157 258.115 55.9662C256.315 54.9458 253.966 55.7308 252.87 57.6146C252.322 58.5565 252.165 59.6555 252.478 60.5974C252.713 61.6178 253.34 62.4027 254.279 62.9522C254.827 63.2662 255.453 63.4232 256.001 63.4232ZM256.471 56.2017C256.941 56.2017 257.411 56.2802 257.88 56.5942C258.585 56.9867 259.133 57.6931 259.29 58.478C259.524 59.3415 259.368 60.2049 258.976 60.9898C258.507 61.7748 257.88 62.3243 257.019 62.6382C256.236 62.8737 255.375 62.7952 254.671 62.4027C253.966 62.0103 253.418 61.3038 253.261 60.5189C253.026 59.6555 253.183 58.792 253.574 58.0071C254.201 56.8297 255.297 56.2017 256.471 56.2017Z" fill="black"/>
<path d="M275.104 52.748C273.46 51.8061 272.912 49.6867 273.929 47.8814C274.947 46.076 277.061 45.4481 278.705 46.3115C280.349 47.2534 280.897 49.3727 279.879 51.1781C278.94 52.9835 276.748 53.6899 275.104 52.748Z" fill="white"/>
<path d="M276.669 53.5329C278.079 53.5329 279.409 52.748 280.192 51.4136C280.74 50.4716 280.897 49.3727 280.584 48.4308C280.349 47.4104 279.723 46.6254 278.783 46.076C277.922 45.605 276.826 45.5265 275.886 45.8405C274.869 46.1545 274.086 46.8609 273.538 47.8028C272.99 48.7448 272.833 49.8437 273.146 50.7856C273.381 51.806 274.008 52.591 274.947 53.1404C275.495 53.3759 276.121 53.5329 276.669 53.5329ZM277.139 46.3114C277.609 46.3114 278.079 46.4684 278.548 46.7039C279.253 47.0964 279.801 47.8028 279.957 48.5878C280.192 49.4512 280.036 50.3146 279.644 51.0996C278.783 52.6695 276.826 53.2974 275.338 52.5125C274.634 52.12 274.086 51.4136 273.929 50.6286C273.694 49.7652 273.851 48.9017 274.242 48.1168C274.712 47.3319 275.338 46.7824 276.2 46.4684C276.435 46.3114 276.826 46.3114 277.139 46.3114Z" fill="black"/>
<path d="M272.129 79.9069C272.207 79.9069 272.285 79.9069 272.364 79.8284C272.52 79.6714 272.52 79.5144 272.442 79.3574L258.898 62.4028C258.741 62.2458 258.585 62.2458 258.428 62.3243C258.272 62.4813 258.272 62.6382 258.35 62.7952L271.894 79.7499C271.894 79.8284 272.05 79.9069 272.129 79.9069Z" fill="black"/>
<path d="M259.29 57.7715C259.368 57.7715 259.368 57.7715 259.446 57.7715L273.538 51.335C273.695 51.2565 273.773 51.021 273.695 50.8641C273.616 50.7071 273.381 50.6286 273.225 50.7071L259.133 57.1436C258.976 57.2221 258.898 57.4575 258.976 57.6145C259.055 57.693 259.211 57.7715 259.29 57.7715Z" fill="black"/>
<path d="M624.659 26.688H617.848V36.3427H624.659V26.688Z" fill="#ACD4F7"/>
<path d="M617.848 36.6567H624.659C624.815 36.6567 624.972 36.4997 624.972 36.3428V26.688C624.972 26.531 624.815 26.374 624.659 26.374H617.848C617.691 26.374 617.535 26.531 617.535 26.688V36.3428C617.535 36.4997 617.691 36.6567 617.848 36.6567ZM624.346 36.0288H618.161V27.002H624.346V36.0288Z" fill="black"/>
<path d="M636.793 20.4869H629.982V36.3427H636.793V20.4869Z" fill="white"/>
<path d="M629.982 36.6567H636.793C636.95 36.6567 637.107 36.4997 637.107 36.3427V20.4869C637.107 20.33 636.95 20.173 636.793 20.173H629.982C629.826 20.173 629.669 20.33 629.669 20.4869V36.3427C629.669 36.4997 629.747 36.6567 629.982 36.6567ZM636.48 36.0287H630.217V20.8009H636.402V36.0287H636.48Z" fill="black"/>
<path d="M648.224 0.313965H641.413V36.3427H648.224V0.313965Z" fill="white"/>
<path d="M641.412 36.6567H648.224C648.38 36.6567 648.537 36.4997 648.537 36.3427V0.313976C648.537 0.156988 648.38 0 648.224 0H641.412C641.256 0 641.099 0.156988 641.099 0.313976V36.3427C641.099 36.4997 641.256 36.6567 641.412 36.6567ZM647.91 36.0287H641.726V0.627952H647.91V36.0287Z" fill="black"/>
<path d="M652.842 35.7147C652.999 35.7147 653.156 35.5577 653.156 35.4007L653.234 18.8385C653.234 18.6815 653.077 18.5245 652.921 18.5245C652.764 18.5245 652.608 18.6815 652.608 18.8385L652.529 35.4007C652.529 35.6362 652.608 35.7147 652.842 35.7147Z" fill="black"/>
<path d="M659.497 35.7148C659.654 35.7148 659.81 35.5578 659.81 35.4008L659.888 26.688C659.888 26.531 659.732 26.374 659.575 26.374C659.419 26.374 659.262 26.531 659.262 26.688L659.184 35.4008C659.262 35.6363 659.34 35.7148 659.497 35.7148Z" fill="black"/>
<path d="M576.747 33.8309L576.512 41.6018L569.779 42.1512L566.256 47.6458L568.683 53.2974L558.819 56.5941L556.236 51.0995L549.581 50.9425L545.823 56.2016L538.621 51.178L541.752 46.2329L537.838 39.7179C537.838 39.7179 531.262 40.5813 531.105 40.3459C530.166 36.8136 530.401 33.0459 531.888 29.6707C533.61 30.2986 535.411 30.8481 537.133 31.3191C537.603 31.476 538.073 31.5545 538.464 31.3975C539.012 31.2406 539.325 30.7696 539.638 30.3771C540.969 28.5718 542.144 26.6879 543.318 24.7256C542.065 23.3912 540.891 21.8213 539.952 20.2514C539.873 20.0944 539.795 19.8589 539.873 19.702C539.952 19.6235 539.952 19.6235 540.03 19.545C542.535 18.1321 545.04 16.6407 547.624 15.2278C547.78 15.1493 547.937 15.0708 548.094 15.0708C548.25 15.0708 548.328 15.2278 548.485 15.3848C549.659 17.1117 550.677 18.917 551.695 20.8009C553.809 20.8794 555.922 20.8794 558.036 20.8794C558.193 20.8794 558.349 20.8794 558.506 20.8009C558.584 20.7224 558.662 20.6439 558.741 20.5654C559.993 18.6815 561.168 16.7192 562.42 14.8353L571.971 21.1148L568.135 26.2954L569.936 32.104L576.747 33.8309ZM558.741 34.4588C558.741 34.3803 558.741 34.3018 558.741 34.2233C558.741 34.0663 558.662 33.8309 558.662 33.6739C558.662 33.5169 558.662 33.5169 558.662 33.6739V33.7524C558.662 33.5954 558.584 33.4384 558.584 33.2029C558.584 33.1244 558.506 32.9674 558.506 32.8889C558.428 32.7319 558.428 32.4965 558.349 32.3395C558.114 31.79 557.801 31.3191 557.41 30.7696C557.018 30.2986 556.47 29.9847 555.844 29.7492C555.531 29.6707 555.139 29.6707 554.748 29.8277C553.887 29.5137 553.026 29.5922 552.165 29.9847C551.303 30.3771 550.677 31.1621 550.129 31.8685C549.659 32.4965 549.268 33.2029 548.955 33.9878C548.72 34.4588 548.563 35.0868 548.563 35.6362C548.563 36.2642 548.876 36.8136 549.19 37.3631C549.659 38.2265 550.677 39.0115 551.695 39.3254C551.93 39.4039 552.556 39.4039 552.008 39.4039C552.243 39.4039 552.399 39.4824 552.634 39.4824C552.947 39.4824 553.261 39.4824 553.652 39.4039C554.043 39.3254 554.435 39.2469 554.826 39.1684C555.766 38.8545 556.549 38.3835 557.253 37.7556C557.566 37.4416 557.88 37.1276 558.193 36.7351C558.349 36.4997 558.428 36.3427 558.506 36.1072C558.584 35.8717 558.897 35.3222 558.819 35.0083C558.741 34.9298 558.741 34.6943 558.741 34.4588Z" fill="white"/>
<path d="M541.204 39.0115C541.282 39.0115 541.283 39.0115 541.283 38.933C543.161 32.8105 545.353 26.688 547.859 20.7224C547.859 20.6439 547.859 20.6439 547.78 20.5654C547.702 20.5654 547.702 20.5654 547.624 20.6439C545.119 26.6095 542.927 32.732 541.048 38.8545C541.126 38.933 541.126 39.0115 541.204 39.0115Z" fill="black"/>
<path d="M544.101 40.032C544.179 40.032 544.179 40.032 544.179 39.9535C545.902 34.1449 548.172 28.4934 550.99 23.0773C550.99 22.9988 550.99 22.9988 550.912 22.9203C550.834 22.9203 550.834 22.9203 550.755 22.9988C547.937 28.4149 545.667 34.1449 543.944 39.9535C544.023 39.9535 544.023 39.9535 544.101 40.032Z" fill="black"/>
<path d="M543.083 51.1781C543.083 51.1781 543.161 51.1781 543.161 51.0996L547.937 40.032C547.937 39.9535 547.937 39.9535 547.859 39.875C547.78 39.875 547.78 39.875 547.702 39.9535L542.927 51.0211C542.927 51.0211 542.927 51.0996 543.083 51.1781C543.005 51.1781 543.005 51.0996 543.083 51.1781Z" fill="black"/>
<path d="M549.346 48.7447C549.346 48.7447 549.424 48.7447 549.424 48.6662L552.086 42.3082C552.086 42.2297 552.086 42.2297 552.008 42.1512C551.93 42.1512 551.93 42.1512 551.851 42.2297L549.189 48.5877C549.189 48.6662 549.268 48.7447 549.346 48.7447Z" fill="black"/>
<path d="M554.356 27.8654C554.435 27.8654 554.435 27.8654 554.435 27.7869L555.687 23.8622C555.687 23.7837 555.687 23.7837 555.609 23.7052C555.531 23.7052 555.531 23.7052 555.453 23.7837L554.2 27.7084C554.2 27.7869 554.278 27.8654 554.356 27.8654Z" fill="black"/>
<path d="M559.367 28.8858C559.445 28.8858 559.445 28.8858 559.445 28.8074C560.776 25.5106 562.264 22.2139 563.908 18.9956C563.908 18.9171 563.908 18.9171 563.829 18.8386C563.751 18.8386 563.751 18.8386 563.673 18.9171C562.029 22.1354 560.541 25.4321 559.21 28.7289C559.289 28.8074 559.289 28.8858 559.367 28.8858Z" fill="black"/>
<path d="M554.357 48.8233C554.357 48.8233 554.435 48.8232 554.435 48.7448L566.569 24.0977C566.569 24.0192 566.569 24.0192 566.491 23.9407C566.413 23.9407 566.413 23.9407 566.335 24.0192L554.278 48.6663C554.2 48.7448 554.278 48.8233 554.357 48.8233Z" fill="black"/>
<path d="M559.21 49.8437C559.21 49.8437 559.289 49.8437 559.289 49.7652L567.431 33.046C567.431 32.9675 567.431 32.9675 567.352 32.889C567.274 32.889 567.274 32.889 567.196 32.9675L559.054 49.6867C559.054 49.7652 559.132 49.7652 559.21 49.8437Z" fill="black"/>
<path d="M567.9 41.4448C567.9 41.4448 567.979 41.4448 567.979 41.3663L571.58 35.1653C571.58 35.0868 571.58 35.0868 571.58 35.0083C571.502 35.0083 571.502 35.0083 571.423 35.0083L567.822 41.2093C567.822 41.3663 567.822 41.3663 567.9 41.4448Z" fill="black"/>
<path d="M561.872 53.2189C561.872 53.2189 561.95 53.2189 561.95 53.1404L563.595 50.0006C563.595 49.9221 563.594 49.9221 563.516 49.8436C563.438 49.8436 563.438 49.8436 563.36 49.9221L561.716 53.0619C561.794 53.1404 561.794 53.2189 561.872 53.2189Z" fill="black"/>
<path d="M534.393 37.5202C534.393 37.5202 534.471 37.5202 534.471 37.4417L536.663 33.1245C536.663 33.046 536.663 33.046 536.585 32.9675C536.507 32.9675 536.507 32.9675 536.429 33.046L534.237 37.3632C534.315 37.4417 534.315 37.5202 534.393 37.5202Z" fill="black"/>
<path d="M543.71 21.1933C543.71 21.1933 543.788 21.1933 543.788 21.1148L545.432 18.3676C545.432 18.2891 545.432 18.2891 545.432 18.2106C545.354 18.2106 545.354 18.2106 545.275 18.2106L543.631 20.9579C543.553 21.1148 543.553 21.1933 543.71 21.1933C543.631 21.1933 543.631 21.1933 543.71 21.1933Z" fill="black"/>
<g opacity="0.1294">
<path d="M565.239 51.4921C564.299 51.806 563.908 52.0415 562.107 52.3555C561.246 52.591 560.228 52.5125 559.445 52.9835C557.88 54.0039 559.21 56.4372 561.011 55.9662C563.203 55.5738 565.63 55.4168 567.352 53.9254C568.605 52.5125 566.961 50.6286 565.239 51.4921Z" fill="black"/>
</g>
<path d="M558.428 56.9866C561.872 56.6726 565.317 55.5737 568.683 53.9254C568.84 53.8469 568.918 53.6899 568.84 53.5329C567.9 51.492 566.883 49.6867 565.865 48.0383C567.509 46.076 568.683 44.4276 569.388 42.7007C571.345 42.5437 573.224 42.6222 574.946 42.7007H575.651C575.807 42.7007 575.886 42.6222 575.964 42.5437C577.06 39.7965 577.452 36.9707 577.295 33.9094C577.295 33.8309 577.217 33.6739 577.138 33.6739C574.477 32.6535 571.971 32.3395 570.092 32.1825C569.466 30.4557 568.683 28.7288 567.979 27.0804C568.762 25.903 569.623 24.8041 570.327 23.7837C570.875 23.0772 571.345 22.3708 571.893 21.6644C571.971 21.5859 571.971 21.5074 571.971 21.4289C571.893 21.1149 571.58 20.8794 571.345 20.6439C570.797 20.173 570.171 19.702 569.544 19.1525C567.352 17.4257 564.925 15.8558 562.342 14.5999C562.185 14.5214 562.029 14.5999 561.95 14.6784C560.62 16.7192 559.524 18.6816 558.428 20.5654C556.001 20.33 553.574 20.4084 551.147 20.8009C550.286 18.7601 549.268 16.7977 548.094 14.9139C548.015 14.7569 547.859 14.7569 547.702 14.7569C544.179 16.1698 541.283 17.9751 538.934 19.9375C538.856 20.016 538.777 20.173 538.856 20.33C539.952 22.2138 541.204 23.8622 542.3 25.2751C540.969 27.2374 539.717 29.1998 538.699 31.2406C536.272 30.6912 533.923 30.1417 531.653 29.5922H531.575C531.418 29.5922 531.262 29.6707 531.262 29.7492C529.774 33.8309 529.461 37.6771 530.479 40.9739C530.557 41.1308 530.635 41.2093 530.792 41.2093C532.514 40.9739 534.08 40.6599 535.646 40.3459C536.194 40.2674 536.82 40.1104 537.446 40.0319C538.542 42.4652 539.717 44.5061 541.126 46.1545C539.873 48.0383 538.699 49.6082 537.603 51.0996C537.525 51.1781 537.525 51.3351 537.603 51.492C539.638 53.8469 542.379 55.7307 545.51 56.9081C545.667 56.9866 545.823 56.9081 545.901 56.7511C546.293 56.1232 546.606 55.4952 546.919 54.8673C547.546 53.6899 548.172 52.6695 548.798 51.5705C550.912 51.806 553.182 51.8845 555.374 51.649C556.549 53.4544 557.332 55.2598 558.114 56.9866C558.193 56.9081 558.271 56.9866 558.428 56.9866ZM568.135 53.4544C565.004 55.0243 561.794 55.9662 558.584 56.3587C557.801 54.6318 557.018 52.748 555.844 50.9426C555.766 50.8641 555.687 50.7856 555.531 50.7856C553.261 51.0996 550.912 50.9426 548.72 50.7071C548.642 50.7071 548.485 50.7856 548.407 50.8641C547.702 51.963 547.076 53.1404 546.449 54.3178C546.136 54.8673 545.823 55.4167 545.51 55.9662C542.692 54.8673 540.186 53.1404 538.308 51.0211C539.404 49.5297 540.578 47.9598 541.83 46.076C541.909 45.9975 541.909 45.8405 541.83 45.6835C540.421 44.0351 539.169 41.9158 537.994 39.3255C537.916 39.1685 537.838 39.09 537.681 39.1685C536.977 39.3255 536.35 39.404 535.646 39.561C534.158 39.8749 532.671 40.1889 531.105 40.3459C530.244 37.2846 530.557 33.7524 531.888 29.9847C534.158 30.5342 536.507 31.0836 538.934 31.6331C539.09 31.6331 539.247 31.6331 539.247 31.4761C540.265 29.3568 541.596 27.3159 543.005 25.1966C543.083 25.1181 543.083 24.9611 543.005 24.8826C541.909 23.5482 540.656 21.9783 539.56 20.0945C541.752 18.2106 544.492 16.6407 547.78 15.3063C548.876 17.1902 549.894 19.074 550.755 21.1149C550.834 21.2719 550.912 21.3504 551.069 21.2719C553.574 20.8794 556.079 20.8009 558.584 21.0364C558.741 21.0364 558.819 20.9579 558.897 20.8794C559.915 18.9956 561.011 17.1117 562.342 15.0709C564.769 16.2483 567.039 17.7397 569.153 19.388C569.779 19.859 570.327 20.33 570.875 20.8009C571.032 20.9579 571.188 21.0364 571.267 21.1934C570.797 21.8213 570.327 22.5278 569.779 23.1557C568.996 24.2547 568.135 25.3536 567.274 26.6095C567.196 26.688 567.196 26.7665 567.274 26.9234C568.057 28.7288 568.84 30.5342 569.544 32.3395C569.623 32.418 569.701 32.4965 569.779 32.4965C571.58 32.6535 574.007 32.9675 576.669 33.9094C576.825 36.7352 576.434 39.404 575.416 41.9158H574.868C572.989 41.8373 571.11 41.7588 569.075 41.9943C568.996 41.9943 568.84 42.0728 568.84 42.1513C568.135 43.8781 566.961 45.605 565.239 47.6458C565.16 47.7243 565.16 47.8813 565.239 47.9598C566.178 49.7652 567.274 51.492 568.135 53.4544Z" fill="black"/>
<path d="M553.026 39.718C554.122 39.718 555.218 39.4825 556.079 38.9331C557.723 37.9911 558.819 36.1073 558.663 34.2234C558.584 32.3396 557.175 30.6127 555.374 29.9848C555.296 29.9848 555.218 29.9848 555.218 29.9063C555.218 29.8278 555.14 29.7493 555.061 29.7493C553.339 29.1998 551.303 29.9063 550.051 31.3976C548.955 32.6535 548.485 34.4589 548.642 36.4213C548.72 36.9707 548.798 37.6772 549.19 38.2266C549.503 38.6191 549.973 38.9331 550.599 39.247C551.382 39.561 552.243 39.718 553.026 39.718ZM554.592 30.2987C554.67 30.4557 554.826 30.4557 555.061 30.5342C555.14 30.5342 555.218 30.5342 555.218 30.6127C556.784 31.0837 558.036 32.6535 558.115 34.3019C558.193 35.8718 557.253 37.5987 555.766 38.4621C554.278 39.3255 552.399 39.404 550.755 38.7761C550.207 38.5406 549.816 38.3051 549.581 37.9911C549.268 37.5202 549.19 36.9707 549.111 36.4998C548.955 34.6944 549.425 33.046 550.364 31.9471C551.46 30.6127 553.182 29.9848 554.592 30.2987Z" fill="black"/>
<g opacity="0.1294">
<path d="M559.993 36.4997C559.915 35.5577 558.349 35.4007 558.114 36.3427C557.801 37.2846 557.958 37.1276 556.862 38.0695C555.844 38.8545 556.236 38.619 554.67 39.1685C553.261 39.5609 553.809 39.4824 552.556 39.4824C552.399 39.4824 552.243 39.4039 552.086 39.3254C551.46 39.09 551.695 39.247 550.52 38.619C550.051 38.3835 549.659 37.991 549.111 37.9126C547.467 37.5986 546.684 39.8749 548.094 40.6598C550.677 42.3867 553.261 43.0932 556.236 41.6803C557.723 40.8953 558.897 39.5609 559.445 37.991C559.68 37.5986 559.993 37.0491 559.993 36.4997Z" fill="black"/>
</g>
<g opacity="0.1294">
<path d="M576.277 38.5405C576.277 38.462 576.277 38.462 576.277 38.5405C576.277 38.2265 576.199 37.8341 576.042 37.5201C575.26 36.1857 573.067 36.4212 572.598 37.7556C572.598 37.8341 572.519 37.9126 572.519 37.991C572.363 38.2265 572.285 38.5405 572.128 38.8545C572.05 39.09 571.893 39.3254 571.815 39.5609C571.658 39.8749 571.502 40.1889 571.502 40.5813C571.502 42.8577 574.868 43.3286 575.573 41.1308C575.886 40.4244 576.199 39.7179 576.277 38.933C576.277 38.776 576.277 38.619 576.277 38.5405Z" fill="black"/>
</g>
<path d="M535.332 12.4021C535.411 12.4021 535.489 12.4021 535.489 12.3236C545.04 4.78817 559.054 3.84624 569.544 10.0473C569.701 10.1258 569.857 10.0473 569.936 9.96877C570.014 9.81178 569.936 9.65479 569.857 9.5763C564.69 6.51503 558.427 5.10214 552.164 5.49461C545.901 5.88708 539.795 8.16341 535.176 11.8526C535.019 11.9311 535.019 12.1666 535.098 12.2451C535.098 12.3236 535.176 12.4021 535.332 12.4021Z" fill="black"/>
<path d="M570.014 10.1257C570.092 10.1257 570.249 10.0472 570.249 9.96871C570.327 9.89021 570.327 9.73323 570.171 9.65473L568.448 7.84937C567.744 7.06443 566.961 6.27949 566.569 5.25907C566.491 5.10208 566.335 5.02359 566.178 5.10208C566.021 5.18058 565.943 5.33756 566.021 5.49455C566.413 6.59347 567.274 7.53539 567.979 8.32033L569.153 9.57624C567.509 9.41925 565.865 9.41925 564.221 9.65473C564.064 9.65473 563.908 9.81172 563.986 9.96871C563.986 10.1257 564.142 10.2827 564.299 10.2042C566.256 9.89021 568.135 9.89021 570.014 10.1257Z" fill="black"/>
<path d="M523.354 38.5405C523.511 38.5405 523.668 38.3836 523.668 38.2266C523.589 32.4965 524.998 26.8449 527.739 21.8213C527.817 21.6643 527.739 21.5074 527.582 21.4289C527.425 21.3504 527.269 21.4289 527.191 21.5859C524.45 26.688 522.963 32.4965 523.041 38.3051C523.041 38.3836 523.198 38.5405 523.354 38.5405Z" fill="black"/>
<path d="M433.245 36.8136C438.256 36.8136 443.266 36.0287 448.042 34.5373C448.198 34.4588 448.276 34.3018 448.198 34.1448C448.12 33.9878 447.963 33.9093 447.807 33.9878C440.682 36.2641 432.932 36.8136 425.573 35.6362C425.416 35.6362 425.26 35.7147 425.26 35.8717C425.26 36.0287 425.338 36.1857 425.495 36.1857C428 36.5781 430.662 36.8136 433.245 36.8136Z" fill="black"/>
<path d="M439.586 41.3663C442.091 40.9739 444.44 40.2674 446.632 39.1685C446.789 39.09 446.867 38.933 446.789 38.776C446.71 38.6191 446.554 38.5406 446.397 38.6191C444.205 39.6395 441.935 40.3459 439.586 40.7384C439.43 40.7384 439.351 40.8954 439.351 41.0524C439.273 41.2878 439.43 41.3663 439.586 41.3663Z" fill="black"/>
<path d="M96.9987 98.5884C97.2336 98.5884 97.3902 98.4314 97.3902 98.1959L97.077 77.238C97.077 77.0811 96.9205 76.9241 96.6856 76.9241C96.529 76.9241 96.3724 77.0811 96.3724 77.3165L96.6856 98.2744C96.6073 98.4314 96.7639 98.5884 96.9987 98.5884Z" fill="black"/>
<path d="M89.7962 99.0593C90.0311 99.0593 90.1877 98.9023 90.1877 98.6668L90.1094 88.9336C90.1094 88.7766 89.9528 88.6196 89.7179 88.6196C89.5614 88.6196 89.4048 88.7766 89.4048 89.0121L89.4831 98.7453C89.4048 98.9023 89.5614 99.0593 89.7962 99.0593Z" fill="black"/>
<path d="M82.4371 99.6874C82.672 99.6874 82.8286 99.5304 82.8286 99.295L82.672 94.8208C82.672 94.6638 82.5154 94.5068 82.2806 94.5068C82.124 94.5068 81.9674 94.6638 81.9674 94.8993L82.124 99.3735C82.124 99.5304 82.2806 99.6874 82.4371 99.6874Z" fill="black"/>
<path d="M434.341 100.786C434.42 100.786 434.498 100.708 434.576 100.629C439.273 94.1141 444.284 87.7561 449.372 81.5551C449.451 81.3981 449.451 81.2411 449.294 81.1626C449.138 81.0841 448.981 81.0841 448.903 81.2411C443.814 87.4422 438.804 93.8787 434.106 100.394C434.028 100.551 434.028 100.708 434.185 100.786C434.185 100.786 434.263 100.786 434.341 100.786Z" fill="black"/>
<path d="M434.967 91.6807C435.046 91.6807 435.202 91.6022 435.202 91.5237C436.455 89.2474 437.942 87.0496 439.586 85.0087C439.665 84.8517 439.665 84.6948 439.508 84.6163C439.352 84.5378 439.195 84.5378 439.117 84.6947C437.473 86.7356 435.985 89.0119 434.654 91.2882C434.576 91.4452 434.654 91.6022 434.733 91.6807C434.811 91.6807 434.889 91.6807 434.967 91.6807Z" fill="black"/>
<path d="M650.964 75.5898C634.054 75.9822 617.065 76.4532 600.155 76.8457C595.458 77.0026 590.291 76.9241 586.768 73.8629C582.775 70.4091 582.697 63.5017 586.69 59.9695C590.682 56.5157 597.728 57.3007 600.781 61.6178C600.703 54.7104 607.827 48.9018 614.873 49.1373C621.997 49.3728 628.26 54.7104 630.766 61.2254C630.296 56.8297 635.541 53.2975 639.847 54.4749C644.153 55.6523 646.971 60.1264 647.128 64.5221C650.338 59.9695 658.401 60.2049 661.376 64.9146C662.159 66.1705 662.629 67.6619 662.472 69.0748C662.159 72.2145 659.262 74.5693 656.131 75.2758C652.921 76.1392 649.711 75.5898 650.964 75.5898Z" fill="white"/>
<path d="M598.041 77.1596C598.746 77.1596 599.45 77.1596 600.155 77.1596L650.572 75.9037C651.199 76.1391 653.939 76.2176 656.131 75.6682C659.027 74.9617 662.316 72.6069 662.707 69.1532C662.864 67.7403 662.472 66.1704 661.611 64.7575C660.202 62.4812 657.462 61.0683 654.33 60.9113C651.512 60.8328 649.007 61.8532 647.363 63.6586C646.893 59.6554 644.309 55.2598 639.925 54.0823C637.577 53.4544 634.758 54.1608 632.723 55.8877C631.47 56.9866 630.687 58.321 630.452 59.7339C629.121 56.9081 627.086 54.3963 624.659 52.5125C621.684 50.1577 618.318 48.9017 614.795 48.7448C610.959 48.5878 606.966 50.1576 604.148 52.9834C601.877 55.1813 600.546 57.8501 600.39 60.6758C598.902 58.949 596.632 57.7716 594.048 57.4576C591.152 57.1436 588.412 57.9285 586.455 59.6554C584.497 61.3823 583.401 63.9726 583.401 66.7984C583.401 69.6241 584.576 72.2929 586.533 73.9413C589.586 76.6886 593.735 77.1596 598.041 77.1596ZM650.886 75.2757L600.155 76.5316C595.145 76.6886 590.291 76.5316 586.924 73.6273C585.045 72.0575 584.028 69.6241 583.949 66.9554C583.949 64.2866 584.967 61.8532 586.768 60.2834C588.568 58.7135 591.23 57.9285 593.97 58.2425C596.71 58.5565 599.059 59.8909 600.39 61.8532C600.468 61.9317 600.625 62.0102 600.703 61.9317C600.86 61.8532 600.938 61.7748 600.938 61.6178C600.86 58.7135 602.19 55.8092 604.539 53.5329C607.279 50.8641 611.115 49.2942 614.795 49.4512C621.371 49.6867 627.791 54.5533 630.452 61.3038C630.531 61.4608 630.687 61.5393 630.766 61.4608C630.922 61.4608 631 61.3038 631 61.1468C630.844 59.4199 631.548 57.6931 633.036 56.4372C634.915 54.8673 637.498 54.1608 639.69 54.7103C644.074 55.8877 646.58 60.5188 646.736 64.4435C646.736 64.6005 646.815 64.679 646.971 64.679C647.128 64.679 647.206 64.679 647.284 64.6005C648.693 62.5597 651.355 61.3823 654.252 61.4608C657.149 61.5393 659.732 62.8737 661.063 64.993C661.846 66.2489 662.237 67.6618 662.081 68.9962C661.768 72.136 658.714 74.3338 655.974 74.9617C654.017 75.4327 652.06 75.3542 651.199 75.2757C651.12 75.1972 651.042 75.1187 650.964 75.1187C650.964 75.2757 650.886 75.2757 650.886 75.2757Z" fill="black"/>
<g opacity="0.1294">
<path d="M660.202 70.9586C659.419 71.5865 659.419 71.665 658.323 72.2145C657.618 72.5284 655.974 72.9209 654.487 72.9994C652.843 73.0779 651.277 72.7639 649.633 72.7639C645.327 72.7639 641.021 72.8424 636.637 72.8424C631.079 72.9209 625.52 72.9994 619.962 73.0779C618.005 73.1564 616.047 73.3134 614.168 73.4704C611.898 73.6274 609.706 73.7058 607.436 73.7843C604.069 73.8628 600.703 74.0983 597.337 73.8628C596.789 73.7843 596.162 73.6274 595.771 74.0983C595.144 74.7263 595.614 75.9822 596.554 75.9037C598.902 76.2176 601.251 76.1392 603.6 76.0607C604.539 76.0607 605.4 75.9822 606.34 75.9822C606.418 76.2177 606.653 76.3746 606.966 76.2961C609.706 76.5316 612.524 76.3746 615.264 76.5316C621.762 76.7671 628.26 76.6886 634.758 76.2961C637.185 76.1392 639.534 76.0607 641.961 75.9822C642.822 75.9822 643.683 75.9037 644.466 75.8252C644.701 75.8252 645.014 75.8252 645.17 75.5897C645.327 75.4327 645.327 75.2757 645.327 75.1187C646.893 75.1187 648.459 75.1187 649.946 75.1187C650.337 75.1187 650.729 75.1187 651.12 75.1187C651.12 75.3542 651.199 75.5897 651.433 75.6682C651.668 75.8252 651.981 75.7467 652.216 75.7467C652.686 75.6682 653.156 75.6682 653.626 75.5897C654.408 75.5112 655.191 75.2757 655.974 75.1187C656.287 74.9617 656.679 74.9618 656.992 74.8048C657.148 74.6478 657.227 74.4908 657.227 74.3338C658.479 73.9413 659.654 73.2349 660.515 72.293C660.75 71.979 661.219 71.7435 661.219 71.2725C661.376 70.8016 660.593 70.4876 660.202 70.9586Z" fill="black"/>
</g>
<path d="M233.924 30.7697C245.433 30.9267 256.941 30.6912 268.449 29.9062C269.937 29.8277 271.502 29.6708 272.833 29.0428C276.2 27.3944 276.983 22.1353 274.399 19.3881C271.816 16.6408 266.805 16.9547 264.3 19.859C264.065 15.6203 260.777 11.4602 256.549 11.1462C253.809 10.9892 251.148 12.3236 249.269 14.2859C247.39 16.2483 246.137 18.7601 245.198 21.3504C244.885 19.545 243.006 18.2891 241.205 18.1322C239.404 17.9752 237.604 18.6816 235.96 19.545C233.768 20.7225 231.654 22.4493 230.871 24.8041C230.088 27.159 230.949 30.7697 233.924 30.7697Z" fill="white"/>
<path d="M240.579 31.1621C249.895 31.1621 259.211 30.8481 268.527 30.2987C269.937 30.2202 271.581 30.0632 273.068 29.3567C274.712 28.5718 275.886 26.9234 276.278 24.8041C276.669 22.6847 276.121 20.5654 274.712 19.1525C273.46 17.8181 271.581 17.1117 269.545 17.1117C267.666 17.1902 265.944 17.8181 264.691 18.9955C264.065 14.5999 260.62 10.9891 256.628 10.7537C254.044 10.5967 251.226 11.7741 249.112 13.9719C247.311 15.8558 246.137 18.2106 245.354 20.1729C244.65 18.6816 242.927 17.7396 241.362 17.5826C239.717 17.4256 237.995 17.8966 235.881 19.074C233.141 20.5654 231.341 22.4493 230.636 24.5686C230.088 26.217 230.323 28.2578 231.184 29.5922C231.889 30.5341 232.828 31.0836 234.002 31.0836C236.116 31.1621 238.387 31.1621 240.579 31.1621ZM233.924 30.4556C232.985 30.4556 232.202 30.0632 231.654 29.2782C230.871 28.1793 230.636 26.374 231.184 24.8826C231.889 22.9202 233.533 21.2719 236.116 19.7805C238.073 18.6816 239.718 18.2891 241.205 18.3676C242.771 18.5246 244.571 19.6235 244.884 21.3503C244.884 21.5073 245.041 21.5858 245.198 21.6643C245.354 21.6643 245.511 21.5858 245.589 21.4288C246.372 19.3095 247.546 16.6407 249.582 14.5214C251.539 12.4805 254.201 11.3031 256.549 11.4601C260.464 11.6956 263.752 15.4633 263.987 19.859C263.987 20.0159 264.065 20.0944 264.222 20.1729C264.378 20.2514 264.535 20.1729 264.613 20.0944C265.709 18.76 267.588 17.8966 269.467 17.8966C271.268 17.8181 272.99 18.5246 274.164 19.702C275.338 20.9579 275.886 22.8417 275.495 24.8041C275.182 26.6094 274.164 28.1008 272.677 28.8073C271.346 29.4352 269.78 29.5922 268.449 29.6707C257.019 30.2987 245.433 30.6126 233.924 30.4556Z" fill="black"/>
<g opacity="0.1294">
<path d="M276.043 24.4116C275.965 23.7052 275.104 23.3127 274.556 23.7052C274.399 23.7837 274.242 23.9407 274.164 24.0977C274.164 24.0977 274.164 24.1762 274.086 24.1762C273.694 24.6471 273.538 25.1966 272.755 25.589C272.05 26.06 267.118 27.0019 266.492 27.0019C264.065 27.1589 261.716 27.3944 259.289 27.3159C258.037 27.2374 256.784 27.3159 255.532 27.3159C254.122 27.3159 252.792 27.2374 251.382 27.3159C247.781 27.3944 244.258 27.7084 240.657 27.9439C238.935 27.9439 237.212 28.0224 235.49 28.1009C234.942 28.1009 234.316 28.1794 233.768 28.1794C233.454 28.1794 233.141 28.3363 232.906 28.4933C232.202 29.1998 232.75 30.5342 233.768 30.4557C236.508 30.2987 239.326 30.3772 242.066 30.2987C245.041 30.1417 248.016 29.9062 250.991 29.9062C252.635 29.8277 254.357 29.9847 256.001 29.9847C257.724 29.9847 259.446 29.9847 261.168 29.9847C263.595 29.8277 265.631 29.5922 267.431 29.3568C267.588 29.8277 268.058 30.2202 268.606 30.0632C269.858 29.9062 271.189 29.7492 272.364 29.1998C272.912 28.9643 273.46 28.7288 273.851 28.1794C274.008 27.8654 274.008 27.5514 273.929 27.3159C274.164 27.1589 274.321 27.0019 274.556 26.845C275.182 26.2955 275.73 25.5891 275.965 24.8041C275.965 24.8041 275.965 24.8041 275.965 24.7256C276.121 24.7256 276.121 24.5686 276.043 24.4116Z" fill="black"/>
</g>
<path d="M201.748 45.448C201.983 45.448 202.139 45.2911 202.139 45.0556C201.826 35.6363 201.826 25.9815 202.139 16.5623C202.139 16.4053 201.983 16.1698 201.826 16.1698C201.591 16.1698 201.435 16.3268 201.435 16.4838C201.122 25.9815 201.122 35.5578 201.435 45.0556C201.357 45.2911 201.513 45.448 201.748 45.448Z" fill="black"/>
<path d="M192.353 36.8138C192.588 36.8138 192.745 36.6568 192.745 36.4213C192.667 32.8891 192.745 29.2783 193.058 25.6676C193.058 25.5106 192.901 25.2751 192.745 25.2751C192.588 25.2751 192.353 25.4321 192.353 25.5891C192.119 29.1998 191.962 32.8106 192.04 36.4213C192.04 36.6568 192.197 36.8138 192.353 36.8138Z" fill="black"/>
<path d="M185.073 28.2579C185.229 28.2579 185.386 28.1009 185.386 27.9439L185.542 20.4085C185.542 20.2515 185.386 20.016 185.229 20.016C185.073 20.016 184.838 20.173 184.838 20.33L184.681 27.8654C184.759 28.1009 184.916 28.2579 185.073 28.2579Z" fill="black"/>
<path d="M598.746 103.141C598.902 103.141 599.059 102.984 599.059 102.827C598.824 98.1959 598.746 93.4078 599.059 88.7766C599.059 88.6196 598.98 88.4626 598.746 88.4626C598.589 88.4626 598.432 88.5411 598.432 88.7766C598.198 93.4863 598.198 98.1959 598.432 102.906C598.511 103.063 598.589 103.141 598.746 103.141Z" fill="black"/>
<path d="M590.917 105.81C591.074 105.81 591.23 105.653 591.23 105.496C591.152 102.513 591.23 99.4518 591.465 96.469C591.465 96.312 591.387 96.155 591.152 96.155C590.995 96.155 590.839 96.2335 590.839 96.3905C590.604 99.3733 590.526 102.513 590.604 105.496C590.604 105.653 590.76 105.81 590.917 105.81Z" fill="black"/>
<path d="M606.418 100.315C606.574 100.315 606.731 100.158 606.731 100.001C606.653 97.0184 606.731 93.9571 606.966 90.9744C606.966 90.8174 606.888 90.6604 606.653 90.6604C606.496 90.6604 606.34 90.7389 606.34 90.8959C606.105 93.8787 606.027 97.0184 606.105 100.001C606.105 100.237 606.261 100.315 606.418 100.315Z" fill="black"/>
<path d="M584.732 98.6669C584.889 98.6669 585.045 98.5099 585.045 98.3529L585.202 91.9949C585.202 91.8379 585.045 91.6809 584.889 91.6809C584.732 91.6809 584.576 91.8379 584.576 91.9949L584.419 98.3529C584.419 98.5099 584.576 98.6669 584.732 98.6669Z" fill="black"/>
<path d="M250.834 93.0938C250.913 93.0938 250.991 93.0938 251.069 93.0153C251.226 92.8583 251.226 92.6229 251.069 92.5444C250.6 91.9949 250.051 91.5239 249.503 90.9745C249.347 90.8175 249.112 90.8175 249.034 90.9745C248.877 91.1315 248.877 91.367 249.034 91.4454C249.582 91.9164 250.051 92.4659 250.6 93.0153C250.678 93.0938 250.756 93.0938 250.834 93.0938ZM247.233 89.7186C247.311 89.7186 247.468 89.6401 247.468 89.5616C247.625 89.4046 247.546 89.1691 247.468 89.0906C246.763 88.4627 246.059 87.8347 245.276 87.2853C245.119 87.1283 244.884 87.2068 244.806 87.3638C244.65 87.5208 244.728 87.7562 244.884 87.8347C245.589 88.3842 246.372 89.0121 247.077 89.6401C247.077 89.6401 247.155 89.7186 247.233 89.7186ZM242.771 86.1864C242.849 86.1864 243.006 86.1079 243.084 86.0294C243.162 85.8724 243.162 85.6369 243.006 85.5584C242.223 85.0089 241.44 84.4595 240.657 83.9885C240.5 83.91 240.265 83.91 240.187 84.067C240.109 84.224 240.109 84.4595 240.265 84.538C241.048 85.0089 241.831 85.5584 242.614 86.1079C242.614 86.1864 242.692 86.1864 242.771 86.1864ZM238.073 83.1251C238.23 83.1251 238.308 83.0466 238.387 82.9681C238.465 82.8111 238.465 82.5756 238.23 82.4971C237.447 82.0262 236.586 81.5552 235.725 81.0843C235.568 81.0058 235.333 81.0843 235.255 81.2412C235.177 81.3982 235.255 81.6337 235.412 81.7122C236.273 82.1832 237.056 82.5756 237.839 83.0466C237.917 83.1251 237.995 83.1251 238.073 83.1251ZM233.063 80.5348C233.22 80.5348 233.298 80.4563 233.376 80.2993C233.454 80.1423 233.376 79.9068 233.22 79.8283C232.358 79.4359 231.497 79.0434 230.636 78.6509C230.48 78.5724 230.245 78.6509 230.166 78.8079C230.088 78.9649 230.166 79.2004 230.323 79.2789C231.184 79.6714 232.045 80.0638 232.906 80.4563C232.985 80.4563 232.985 80.5348 233.063 80.5348ZM181.002 78.8079C181.08 78.8079 181.08 78.8079 181.158 78.8079C182.019 78.4155 182.88 78.1015 183.742 77.7875C183.898 77.709 184.055 77.552 183.977 77.3165C183.898 77.1596 183.742 77.0026 183.507 77.0811C182.646 77.395 181.706 77.709 180.845 78.1015C180.688 78.18 180.61 78.4155 180.688 78.5724C180.767 78.6509 180.845 78.8079 181.002 78.8079ZM227.896 78.337C228.053 78.337 228.209 78.2585 228.209 78.1015C228.287 77.9445 228.209 77.709 227.974 77.6305C227.113 77.3165 226.174 77.0026 225.313 76.6886C225.156 76.6101 224.921 76.7671 224.843 76.9241C224.765 77.0811 224.921 77.3165 225.078 77.395C225.939 77.709 226.878 78.023 227.739 78.337C227.739 78.337 227.818 78.337 227.896 78.337ZM186.325 76.8456H186.403C187.265 76.6101 188.204 76.2961 189.065 76.0606C189.222 75.9821 189.378 75.8252 189.3 75.6682C189.222 75.5112 189.065 75.3542 188.909 75.4327C187.969 75.6682 187.108 75.9036 186.169 76.2176C186.012 76.2961 185.855 76.4531 185.934 76.6886C186.012 76.7671 186.169 76.8456 186.325 76.8456ZM222.494 76.6101C222.651 76.6101 222.807 76.5316 222.807 76.3746C222.886 76.2176 222.729 75.9821 222.572 75.9036C221.633 75.6682 220.772 75.4327 219.832 75.1972C219.676 75.1187 219.441 75.2757 219.441 75.4327C219.363 75.5897 219.519 75.8252 219.676 75.8252C220.615 76.0606 221.476 76.2961 222.416 76.5316C222.416 76.6101 222.494 76.6101 222.494 76.6101ZM191.805 75.4327C192.823 75.2757 193.684 75.0402 194.624 74.8832C194.78 74.8832 194.937 74.6477 194.937 74.4908C194.937 74.3338 194.702 74.1768 194.545 74.1768C193.606 74.3338 192.666 74.4908 191.727 74.7262C191.57 74.8047 191.414 74.9617 191.492 75.1187C191.492 75.3542 191.649 75.4327 191.805 75.4327ZM217.014 75.2757C217.171 75.2757 217.327 75.1187 217.327 74.9617C217.327 74.8047 217.249 74.5693 217.014 74.5693C216.075 74.4123 215.135 74.2553 214.196 74.0983C214.039 74.0983 213.804 74.1768 213.804 74.4123C213.804 74.5693 213.882 74.8047 214.117 74.8047C215.057 74.9617 215.996 75.1187 217.014 75.2757ZM197.364 74.5693C198.303 74.4908 199.243 74.4123 200.182 74.3338C200.339 74.3338 200.495 74.1768 200.495 73.9413C200.495 73.7843 200.339 73.6273 200.104 73.6273C199.164 73.7058 198.225 73.7843 197.285 73.8628C197.129 73.8628 196.972 74.0983 196.972 74.2553C197.051 74.4123 197.207 74.5693 197.364 74.5693ZM211.456 74.4908C211.612 74.4908 211.769 74.3338 211.769 74.1768C211.769 74.0198 211.612 73.7843 211.456 73.7843C210.516 73.7058 209.577 73.6273 208.637 73.5488C208.402 73.5488 208.246 73.7058 208.246 73.8628C208.246 74.0198 208.402 74.2553 208.559 74.2553C209.498 74.3338 210.438 74.4123 211.456 74.4908C211.377 74.4908 211.377 74.4908 211.456 74.4908ZM203 74.1768C203.94 74.1768 204.879 74.1768 205.819 74.1768C206.054 74.1768 206.21 74.0198 206.21 73.8628C206.21 73.7058 206.054 73.4703 205.897 73.4703C204.958 73.4703 204.018 73.4703 203.079 73.4703C202.922 73.4703 202.766 73.6273 202.766 73.8628C202.609 74.0198 202.766 74.1768 203 74.1768Z" fill="black"/>
<path d="M411.011 64.836C411.638 64.836 412.186 64.836 412.812 64.836C412.969 64.836 413.125 64.679 413.125 64.522C413.125 64.3651 412.969 64.2081 412.812 64.2081C412.029 64.2081 411.246 64.2081 410.463 64.2081C410.307 64.2081 410.15 64.3651 410.15 64.522C410.15 64.679 410.307 64.836 410.463 64.836C410.62 64.836 410.777 64.836 411.011 64.836ZM408.036 64.7575C408.193 64.7575 408.35 64.6005 408.35 64.4436C408.35 64.2866 408.193 64.1296 408.036 64.1296C407.254 64.1296 406.471 64.0511 405.688 63.9726C405.531 63.9726 405.375 64.0511 405.375 64.2081C405.375 64.3651 405.453 64.522 405.61 64.522C406.392 64.679 407.254 64.7575 408.036 64.7575ZM415.161 64.679C415.944 64.6005 416.805 64.6005 417.588 64.522C417.744 64.522 417.901 64.3651 417.822 64.2081C417.822 64.0511 417.666 63.8941 417.509 63.9726C416.726 64.0511 415.944 64.1296 415.161 64.1296C415.004 64.1296 414.848 64.2866 414.848 64.4436C414.848 64.6005 415.004 64.679 415.161 64.679ZM403.261 64.3651C403.417 64.3651 403.574 64.2866 403.574 64.1296C403.574 63.9726 403.496 63.8156 403.339 63.8156C402.556 63.7371 401.773 63.5801 400.991 63.5016C400.834 63.5016 400.677 63.5801 400.677 63.7371C400.677 63.8941 400.756 64.0511 400.912 64.0511C401.695 64.2081 402.478 64.2866 403.261 64.3651ZM419.936 64.2866C420.719 64.2081 421.58 64.0511 422.363 63.9726C422.52 63.9726 422.598 63.8156 422.598 63.6586C422.598 63.5016 422.441 63.4231 422.285 63.4231C421.502 63.5801 420.719 63.6586 419.936 63.7371C419.78 63.7371 419.623 63.8941 419.701 64.0511C419.623 64.2081 419.78 64.2866 419.936 64.2866ZM398.564 63.6586C398.72 63.6586 398.799 63.5801 398.877 63.4231C398.877 63.2662 398.799 63.1092 398.642 63.1092C397.859 62.9522 397.076 62.7952 396.293 62.6382C396.137 62.6382 395.98 62.7167 395.902 62.8737C395.902 63.0307 395.98 63.1877 396.137 63.2661C396.92 63.3446 397.781 63.5016 398.564 63.6586ZM424.634 63.5801C425.495 63.4231 426.278 63.2661 427.06 63.1092C427.217 63.1092 427.295 62.9522 427.295 62.7952C427.295 62.6382 427.139 62.5597 426.904 62.5597C426.121 62.7167 425.338 62.8737 424.555 63.0307C424.399 63.0307 424.32 63.1877 424.32 63.3446C424.32 63.5016 424.477 63.5801 424.634 63.5801ZM393.945 62.6382C394.101 62.6382 394.18 62.5597 394.258 62.4027C394.336 62.2457 394.18 62.0887 394.023 62.0102C393.24 61.7748 392.457 61.6178 391.753 61.3823C391.596 61.3038 391.439 61.4608 391.361 61.6178C391.283 61.7748 391.439 61.9318 391.596 62.0102C392.301 62.2457 393.084 62.4027 393.945 62.6382ZM429.252 62.5597C429.331 62.5597 429.331 62.5597 429.252 62.5597C430.114 62.4027 430.897 62.1672 431.601 61.9318C431.758 61.8533 431.836 61.6963 431.836 61.5393C431.758 61.3823 431.601 61.3038 431.445 61.3038C430.662 61.5393 429.879 61.6963 429.174 61.8533C429.018 61.8533 428.939 62.0887 428.939 62.2457C429.018 62.4812 429.174 62.5597 429.252 62.5597ZM433.871 61.3823H433.95C434.733 61.1468 435.437 60.9113 436.22 60.6758C436.377 60.5974 436.455 60.4404 436.377 60.2834C436.298 60.1264 436.142 60.0479 435.985 60.1264C435.202 60.3619 434.498 60.5974 433.715 60.8328C433.558 60.9113 433.48 61.0683 433.48 61.2253C433.637 61.3038 433.715 61.3823 433.871 61.3823ZM438.412 59.8909H438.49C439.195 59.6554 439.978 59.3415 440.761 59.106C440.917 59.0275 440.996 58.8705 440.917 58.7135C440.839 58.5565 440.683 58.478 440.526 58.5565C439.821 58.8705 439.038 59.106 438.334 59.3414C438.177 59.4199 438.099 59.5769 438.177 59.7339C438.177 59.8124 438.256 59.8909 438.412 59.8909ZM442.875 58.2425H442.953C443.657 57.9286 444.44 57.6146 445.145 57.3006C445.301 57.2221 445.38 57.0651 445.301 56.9081C445.223 56.7512 445.067 56.6727 444.91 56.7512C444.205 57.0651 443.423 57.3791 442.718 57.6931C442.561 57.7716 442.483 57.9286 442.561 58.0855C442.64 58.164 442.718 58.2425 442.875 58.2425ZM447.259 56.3587C447.337 56.3587 447.337 56.3587 447.415 56.3587C448.12 56.0447 448.903 55.6522 449.607 55.3383C449.764 55.2598 449.842 55.1028 449.764 54.9458C449.686 54.7888 449.529 54.7103 449.372 54.7888C448.668 55.1028 447.963 55.4952 447.259 55.8092C447.102 55.8877 447.024 56.0447 447.102 56.2017C447.024 56.2802 447.102 56.3587 447.259 56.3587ZM451.486 54.2393C451.565 54.2393 451.565 54.2393 451.643 54.2393C452.269 53.9254 452.895 53.6114 453.443 53.2974L453.757 53.1404C453.913 53.0619 453.991 52.9049 453.913 52.748C453.835 52.591 453.678 52.5125 453.522 52.591L453.209 52.748C452.582 53.0619 452.034 53.3759 451.408 53.6899C451.251 53.7684 451.173 53.9254 451.251 54.0824C451.33 54.2393 451.408 54.2393 451.486 54.2393ZM455.714 52.0415C455.792 52.0415 455.792 52.0415 455.87 52.0415C456.575 51.649 457.28 51.2566 457.984 50.8641C458.141 50.7856 458.141 50.6286 458.062 50.4716C457.984 50.3147 457.828 50.3146 457.671 50.3931C456.966 50.7856 456.262 51.1781 455.635 51.5705C455.479 51.649 455.479 51.806 455.557 51.963C455.479 51.963 455.635 52.0415 455.714 52.0415ZM459.863 49.6867C459.941 49.6867 459.941 49.6867 460.02 49.6082C460.724 49.2157 461.351 48.8233 462.055 48.3523C462.212 48.2738 462.212 48.1168 462.133 47.9598C462.055 47.8028 461.899 47.8028 461.742 47.8813C461.037 48.2738 460.411 48.7448 459.706 49.1372C459.55 49.2157 459.55 49.3727 459.628 49.5297C459.628 49.6082 459.706 49.6867 459.863 49.6867ZM463.856 47.1749C463.934 47.1749 463.934 47.1749 464.012 47.0964C464.639 46.7039 465.343 46.233 466.048 45.762C466.204 45.6835 466.204 45.448 466.126 45.3695C466.048 45.2125 465.813 45.2125 465.735 45.291C465.108 45.762 464.404 46.1545 463.777 46.6254C463.621 46.7039 463.621 46.8609 463.699 47.0179C463.699 47.0964 463.777 47.1749 463.856 47.1749ZM467.848 44.5061C467.927 44.5061 467.927 44.5061 468.005 44.4276C468.631 43.9566 469.336 43.5642 469.962 43.0932C470.119 43.0147 470.119 42.7792 470.04 42.7007C469.962 42.5437 469.727 42.5437 469.649 42.6222C469.023 43.0932 468.318 43.5642 467.692 43.9566C467.535 44.0351 467.535 44.2706 467.614 44.3491C467.692 44.5061 467.77 44.5061 467.848 44.5061ZM471.763 41.7588C471.841 41.7588 471.919 41.7588 471.919 41.6803C472.546 41.2093 473.172 40.7384 473.877 40.2674C474.033 40.1889 474.033 39.9534 473.955 39.875C473.877 39.718 473.642 39.718 473.563 39.7965C472.937 40.2674 472.311 40.7384 471.606 41.2094C471.45 41.2878 471.45 41.5233 471.528 41.6018C471.606 41.7588 471.684 41.7588 471.763 41.7588ZM475.599 38.933C475.677 38.933 475.755 38.933 475.755 38.8545C476.382 38.3836 477.008 37.9126 477.634 37.4416C477.791 37.3631 477.791 37.1277 477.713 37.0492C477.634 36.8922 477.4 36.8922 477.321 36.9707C476.695 37.4416 476.069 37.9126 475.442 38.3836C475.286 38.4621 475.286 38.6975 475.364 38.776C475.442 38.933 475.521 38.933 475.599 38.933ZM479.357 36.1072C479.435 36.1072 479.513 36.1072 479.513 36.0288C480.14 35.5578 480.766 35.0868 481.392 34.5374C481.549 34.4589 481.549 34.2234 481.47 34.1449C481.392 33.9879 481.157 33.9879 481.079 34.0664C480.453 34.5374 479.826 35.0083 479.2 35.5578C479.044 35.6363 479.044 35.8718 479.122 35.9503C479.2 36.0288 479.278 36.1072 479.357 36.1072ZM483.115 33.1245C483.193 33.1245 483.271 33.1245 483.271 33.046C483.897 32.575 484.524 32.0256 485.15 31.5546C485.307 31.4761 485.307 31.2406 485.228 31.1621C485.15 31.0051 484.915 31.0051 484.837 31.0836C484.211 31.5546 483.584 32.1041 482.958 32.575C482.801 32.6535 482.801 32.889 482.88 32.9675C482.958 33.1245 483.036 33.1245 483.115 33.1245ZM486.794 30.1417C486.872 30.1417 486.951 30.1417 486.951 30.0632C487.577 29.5922 488.203 29.0428 488.751 28.5718C488.908 28.4933 488.908 28.2579 488.83 28.1794C488.751 28.0224 488.516 28.0224 488.438 28.1009C487.812 28.5718 487.185 29.1213 486.637 29.5922C486.481 29.6707 486.481 29.9062 486.559 29.9847C486.637 30.0632 486.716 30.1417 486.794 30.1417ZM490.474 27.0804C490.552 27.0804 490.63 27.0804 490.63 27.0019C491.256 26.531 491.883 25.9815 492.431 25.5106C492.587 25.4321 492.587 25.1966 492.431 25.1181C492.353 24.9611 492.118 24.9611 492.039 25.1181C491.413 25.5891 490.787 26.1385 490.239 26.6095C490.082 26.688 490.082 26.9235 490.239 27.0019C490.317 27.0804 490.395 27.0804 490.474 27.0804ZM494.153 24.0192C494.231 24.0192 494.31 24.0192 494.31 23.9407C494.936 23.3912 495.562 22.9203 496.11 22.3708C496.267 22.2923 496.267 22.0568 496.11 21.9783C496.032 21.8213 495.797 21.8213 495.719 21.9783C495.093 22.5278 494.545 22.9988 493.918 23.5482C493.762 23.6267 493.762 23.8622 493.918 23.9407C493.918 24.0192 493.997 24.0192 494.153 24.0192Z" fill="black"/>
<path d="M255.61 89.4045C255.688 89.4045 255.766 89.4045 255.845 89.326C256.001 89.1691 256.001 89.0121 255.923 88.8551C250.913 82.8895 245.041 77.8659 238.387 73.9412C238.23 73.8627 237.995 73.8627 237.917 74.0982C237.839 74.2552 237.839 74.4907 238.073 74.5692C244.65 78.4939 250.521 83.439 255.453 89.326C255.375 89.4045 255.532 89.4045 255.61 89.4045Z" fill="black"/>
<path d="M404.983 70.88C405.61 70.88 406.158 70.88 406.784 70.88C406.94 70.88 407.097 70.723 407.097 70.5661C407.097 70.4091 406.94 70.2521 406.784 70.2521C398.564 70.5661 390.109 68.5252 382.984 64.365C382.828 64.2865 382.671 64.365 382.593 64.4435C382.515 64.6005 382.593 64.7575 382.671 64.836C389.404 68.7607 397.233 70.88 404.983 70.88Z" fill="black"/>
<path d="M400.756 31.3191C414.769 32.418 428.861 31.79 442.874 30.8481C446.241 30.6126 449.92 30.2987 452.426 28.0223C456.027 24.7256 455.401 17.9751 451.33 15.3063C447.259 12.6375 441.074 14.3644 438.725 18.6816C438.882 13.4225 434.419 8.47734 429.252 8.08487C424.085 7.61391 418.918 11.7741 418.135 16.9547C417.744 13.4225 412.734 12.0096 409.837 14.1289C406.94 16.2482 406.236 20.2514 406.784 23.7052C405.375 20.4084 400.051 20.0944 397.859 22.9987C395.745 25.8245 396.685 31.0051 400.756 31.3191Z" fill="white"/>
<path d="M416.491 32.1825C424.79 32.1825 433.402 31.7901 442.953 31.1621C446.632 30.9266 450.155 30.5341 452.739 28.2578C454.461 26.6879 455.401 24.2546 455.166 21.5858C454.931 18.8386 453.6 16.4052 451.564 15.0708C449.607 13.8149 447.102 13.4225 444.597 14.0504C442.326 14.5999 440.369 15.9343 439.117 17.7396C438.725 12.7945 434.419 8.24187 429.409 7.8494C424.477 7.45693 419.545 11.0677 418.214 15.7773C417.744 14.7569 416.883 13.9719 415.709 13.4225C413.751 12.559 411.324 12.716 409.759 13.8934C407.019 15.8558 406.236 19.388 406.471 22.4493C405.688 21.5858 404.513 20.9579 403.183 20.8009C401.069 20.4869 398.955 21.3504 397.781 22.8417C396.45 24.5686 396.137 27.0804 396.998 28.9643C397.702 30.5341 399.033 31.4761 400.756 31.6331C405.923 31.947 411.168 32.1825 416.491 32.1825ZM446.945 14.2859C448.511 14.2859 449.999 14.6784 451.251 15.5418C453.13 16.7977 454.383 19.074 454.618 21.6643C454.774 24.0976 453.991 26.374 452.347 27.8654C449.999 29.9847 446.554 30.3772 442.953 30.6126C427.217 31.6331 414.065 32.0255 400.834 31.0836C399.346 31.0051 398.172 30.1417 397.546 28.8073C396.763 27.0804 397.076 24.8041 398.25 23.2342C399.268 21.8998 401.147 21.1934 403.104 21.4289C404.827 21.6643 406.079 22.5278 406.627 23.8622C406.705 24.0192 406.862 24.0976 407.019 24.0192C407.175 23.9407 407.253 23.8622 407.253 23.7052C406.784 20.7224 407.253 16.4837 410.15 14.3644C411.559 13.344 413.751 13.187 415.474 13.9719C416.883 14.5999 417.744 15.6988 417.901 17.0332C417.901 17.1902 418.057 17.2687 418.214 17.2687C418.37 17.2687 418.527 17.1902 418.527 17.0332C419.232 12.0096 424.32 8.00639 429.331 8.39886C434.341 8.79133 438.647 13.658 438.569 18.6816C438.569 18.8386 438.647 18.917 438.803 18.9955C438.96 18.9955 439.038 18.9955 439.117 18.8386C440.213 16.7977 442.248 15.2278 444.753 14.5999C445.38 14.3644 446.163 14.2859 446.945 14.2859Z" fill="black"/>
<g opacity="0.1294">
<path d="M453.365 26.2954C453.365 25.903 452.974 25.589 452.504 25.589C452.191 25.589 451.956 25.8245 451.721 25.903C451.408 26.06 451.095 26.2954 450.782 26.3739C449.607 26.8449 448.433 27.3159 447.18 27.4728C447.024 27.4728 446.946 27.4728 446.789 27.5513C447.337 27.4728 446.867 27.5513 446.554 27.5513C440.761 27.6298 435.046 28.2578 429.252 28.4148C426.591 28.4933 424.007 28.7287 421.345 28.8072C416.961 28.8857 412.577 29.0427 408.193 29.1212C407.097 29.1212 406.001 29.1212 404.905 29.0427C403.104 28.8857 401.225 28.5718 399.425 28.5718C398.016 28.5718 398.016 30.6911 399.425 30.6911C402.243 30.8481 402.478 31.1621 406.079 31.476C408.819 31.7115 411.559 31.476 414.3 31.476C417.04 31.476 419.858 31.476 422.598 31.476C424.868 31.476 427.139 31.319 429.331 31.2406C429.409 31.2406 429.487 31.2406 429.566 31.2406C432.697 31.319 435.829 31.2406 438.96 31.0051C440.291 30.9266 441.622 30.9266 442.953 30.8481C444.127 30.7696 444.597 30.6911 445.301 30.5341C446.867 30.3771 448.355 30.2201 449.764 29.5922C450.155 29.3567 450.703 29.1997 451.016 28.8857C451.173 28.7287 451.173 28.5718 451.173 28.4148C451.565 28.1793 452.034 27.9438 452.347 27.6298C452.504 27.5513 452.895 27.2374 452.504 27.4728C452.661 27.3159 452.817 27.2374 453.052 27.0804C453.287 26.9234 453.443 26.6094 453.365 26.2954Z" fill="black"/>
</g>
</g>
<defs>
<clipPath id="clip0_62_1403">
<rect width="706" height="123" fill="white"/>
</clipPath>
</defs>
</svg>
