<svg width="122" height="25" viewBox="0 0 122 25" fill="none" xmlns="http://www.w3.org/2000/svg">
<g clip-path="url(#clip0_3_12)">
<path d="M36.5732 6.66535C36.5732 5.53078 37.1373 4.96054 38.2637 4.96054H41.7251C44.1412 4.96054 46.0524 5.52223 47.4589 6.64562C49.077 7.96106 49.886 9.91252 49.886 12.5C49.886 14.9862 49.1567 16.8844 47.6979 18.1946C46.2783 19.464 44.2874 20.0987 41.7251 20.0987H38.2637C37.138 20.0987 36.5745 19.5304 36.5732 18.3938V6.66535ZM41.7251 17.0501C43.065 17.0501 44.0739 16.7298 44.7517 16.0892C45.5353 15.3394 45.927 14.1233 45.927 12.4408C45.927 9.47317 44.5271 7.98935 41.7271 7.98935H40.3559V17.0501H41.7251Z" fill="#18427F"/>
<path d="M53.371 4.50079H54.2877C54.6979 4.5049 55.0902 4.67087 55.3803 4.96305C55.6704 5.25524 55.8351 5.65034 55.8392 6.06354C55.8356 6.47707 55.6711 6.87268 55.381 7.16529C55.0908 7.4579 54.6983 7.62414 54.2877 7.62826H53.371C52.9604 7.62414 52.5679 7.4579 52.2777 7.16529C51.9876 6.87268 51.8231 6.47707 51.8195 6.06354C51.8236 5.65034 51.9883 5.25524 52.2784 4.96305C52.5685 4.67087 52.9608 4.5049 53.371 4.50079ZM51.9782 10.8761C51.9758 10.6305 52.022 10.387 52.1141 10.1596C52.2063 9.9323 52.3425 9.72576 52.5149 9.55209C52.8663 9.20616 53.338 9.01216 53.8293 9.01145C54.0731 9.00907 54.3149 9.05568 54.5405 9.14855C54.7662 9.24142 54.9712 9.37868 55.1436 9.5523C55.316 9.72592 55.4522 9.93242 55.5444 10.1597C55.6366 10.387 55.6829 10.6306 55.6805 10.8761V18.3938C55.6798 18.8888 55.4872 19.3639 55.1438 19.7178C54.9714 19.8914 54.7663 20.0287 54.5406 20.1215C54.3149 20.2143 54.0731 20.2609 53.8293 20.2585C53.5856 20.2609 53.3438 20.2142 53.1182 20.1214C52.8925 20.0285 52.6875 19.8913 52.5151 19.7176C52.3427 19.544 52.2065 19.3375 52.1143 19.1102C52.0221 18.8829 51.9758 18.6394 51.9782 18.3938V10.8761Z" fill="#18427F"/>
<path d="M62.6465 8.95028C63.9994 8.95028 65.0018 9.43173 65.6534 10.3946C65.7127 10.0007 65.9239 9.64616 66.2411 9.40805C66.5496 9.15256 66.9367 9.01306 67.3362 9.01342C67.5618 9.00902 67.786 9.05122 67.9949 9.13741C68.2038 9.22361 68.3929 9.35197 68.5507 9.5146C68.7107 9.67043 68.8375 9.8576 68.923 10.0646C69.0086 10.2716 69.0512 10.494 69.0483 10.7182V18.8161C69.0483 22.773 67.024 24.7507 62.9756 24.7494C61.5025 24.7494 60.3212 24.4205 59.4319 23.7628C59.1705 23.5629 58.9771 23.2861 58.8786 22.9707C58.7801 22.6553 58.7812 22.3169 58.8819 22.0022C58.9825 21.6874 59.1777 21.412 59.4404 21.2138C59.7032 21.0156 60.0205 20.9045 60.3487 20.8958C60.5779 20.8867 60.806 20.933 61.0139 21.0308C61.2218 21.1287 61.4034 21.2752 61.5436 21.4582C61.7403 21.699 61.9905 21.8898 62.274 22.0153C62.5575 22.1407 62.8662 22.1973 63.1754 22.1803C64.6485 22.1803 65.3851 21.3852 65.3851 19.7948V18.5912C64.6289 19.5541 63.5802 20.0349 62.239 20.0335C60.7137 20.0335 59.5527 19.4725 58.7561 18.3504C58.0665 17.3757 57.7217 16.0991 57.7217 14.5205C57.7217 12.8368 58.1729 11.4805 59.0754 10.4519C59.983 9.45212 61.1734 8.95159 62.6465 8.95028ZM63.4692 17.5927C63.7734 17.605 64.0748 17.5306 64.3388 17.378C64.6029 17.2255 64.8188 17.0011 64.9619 16.7305C65.2936 16.1951 65.4595 15.4532 65.4595 14.5047C65.4595 13.5563 65.2936 12.8144 64.9619 12.279C64.8188 12.0084 64.6029 11.784 64.3388 11.6314C64.0748 11.4789 63.7734 11.4045 63.4692 11.4167C63.1633 11.4093 62.8611 11.4856 62.5948 11.6374C62.3285 11.7893 62.1081 12.011 61.9569 12.279C61.6239 12.8144 61.4581 13.5563 61.4594 14.5047C61.4607 15.4532 61.6265 16.1951 61.9569 16.7305C62.1081 16.9985 62.3285 17.2202 62.5948 17.372C62.8611 17.5239 63.1633 17.6001 63.4692 17.5927Z" fill="#18427F"/>
<path d="M72.5351 4.50079H73.4598C73.8703 4.50439 74.2631 4.67013 74.5536 4.96237C74.8441 5.25461 75.0091 5.65001 75.0132 6.06354C75.0096 6.47741 74.8448 6.87331 74.5542 7.16597C74.2637 7.45864 73.8706 7.62465 73.4598 7.62826H72.5449C72.134 7.62465 71.741 7.45864 71.4505 7.16597C71.1599 6.87331 70.9951 6.47741 70.9915 6.06354C70.9956 5.65001 71.1606 5.25461 71.4511 4.96237C71.7416 4.67013 72.1344 4.50439 72.5449 4.50079H72.5351ZM71.1404 10.8761C71.1383 10.6304 71.1849 10.3868 71.2774 10.1595C71.3699 9.93214 71.5065 9.72566 71.6791 9.55209C72.0303 9.2058 72.5021 9.01174 72.9935 9.01144C73.2371 9.00934 73.4787 9.05614 73.7041 9.14913C73.9296 9.24211 74.1343 9.37941 74.3065 9.55301C74.4787 9.7266 74.6147 9.93301 74.7068 10.1602C74.7989 10.3874 74.8451 10.6307 74.8428 10.8761V18.3938C74.8429 18.8889 74.6502 19.3643 74.306 19.7178C74.134 19.8915 73.9293 20.0288 73.7039 20.1216C73.4786 20.2144 73.237 20.261 72.9935 20.2585C72.7497 20.2609 72.5078 20.2143 72.282 20.1214C72.0563 20.0286 71.8511 19.8913 71.6786 19.7177C71.5061 19.5441 71.3696 19.3377 71.2772 19.1104C71.1848 18.883 71.1383 18.6395 71.1404 18.3938V10.8761Z" fill="#18427F"/>
<path d="M78.1475 9.17127H78.8233L78.9036 7.68745C78.9208 7.2531 79.1065 6.84288 79.4208 6.54499C79.7407 6.24757 80.1607 6.0833 80.5961 6.08524C81.0438 6.08732 81.4727 6.26739 81.7892 6.58629C82.1058 6.90518 82.2846 7.3371 82.2867 7.78808V9.1693H83.462C83.7834 9.17188 84.0908 9.30159 84.318 9.53046C84.5452 9.75933 84.674 10.069 84.6766 10.3927C84.6798 10.5565 84.6497 10.7194 84.588 10.8711C84.5264 11.0228 84.4345 11.1601 84.3181 11.2747C84.2077 11.3913 84.0748 11.484 83.9276 11.5471C83.7804 11.6102 83.622 11.6424 83.462 11.6417H82.367V16.1089C82.367 16.6154 82.493 16.9896 82.7451 17.2317C82.8413 17.3386 82.9562 17.4268 83.084 17.4921C83.1897 17.5316 83.3092 17.573 83.4424 17.6125C84.3971 17.8927 84.8744 18.2939 84.8744 18.8161C84.8952 19.1032 84.8203 19.389 84.6617 19.6284C84.5032 19.8678 84.2699 20.0472 83.9988 20.1381C83.7137 20.2281 83.4203 20.2889 83.1231 20.3197C82.9762 20.3315 82.6589 20.3394 82.1672 20.3394C80.8808 20.3394 79.9719 20.0105 79.4404 19.3528C78.918 18.7253 78.6659 17.7499 78.6842 16.4266L78.7038 11.6338H78.1475C77.8261 11.6312 77.5187 11.5015 77.2915 11.2726C77.0643 11.0437 76.9355 10.7341 76.9329 10.4104C76.9297 10.2465 76.9598 10.0837 77.0215 9.93202C77.0831 9.78032 77.175 9.64296 77.2914 9.52841C77.4026 9.41356 77.5359 9.32268 77.683 9.26129C77.8302 9.19989 77.9882 9.16927 78.1475 9.17127Z" fill="#18427F"/>
<path d="M91.4682 8.89108C93.1254 8.89108 94.4719 9.42581 95.5075 10.4953C95.9539 10.9326 96.3076 11.4566 96.5473 12.0355C96.7871 12.6144 96.9078 13.2362 96.9022 13.8635C96.9022 15.0395 96.3583 15.6275 95.2705 15.6275H89.3937C89.4186 16.2198 89.6682 16.7798 90.091 17.1922C90.5061 17.581 91.0564 17.7894 91.6229 17.7723C91.9369 17.7761 92.2482 17.715 92.5378 17.5927C92.7655 17.4725 92.9807 17.3298 93.1803 17.1665C93.6837 16.7719 94.1284 16.5746 94.5123 16.5746C94.7088 16.5715 94.9039 16.6089 95.0855 16.6846C95.2671 16.7602 95.4313 16.8726 95.5682 17.0146C95.7118 17.1587 95.8247 17.3309 95.8998 17.5206C95.9749 17.7103 96.0107 17.9135 96.005 18.1176C96.005 18.8661 95.5676 19.4541 94.6926 19.8816C93.8174 20.2523 92.8736 20.4299 91.9246 20.4025C90.0675 20.4025 88.5886 19.8882 87.4876 18.8595C86.3867 17.8308 85.8428 16.4338 85.8559 14.6685C85.8559 12.9716 86.3599 11.595 87.3681 10.5387C88.4025 9.4416 89.7691 8.8924 91.4682 8.89108ZM93.339 13.4432C93.3481 12.877 93.1372 12.3297 92.7513 11.9179C92.3908 11.5591 91.9045 11.3578 91.3977 11.3578C90.8909 11.3578 90.4045 11.5591 90.044 11.9179C89.6606 12.3353 89.4352 12.8752 89.4074 13.4432H93.339Z" fill="#18427F"/>
<path d="M98.9904 6.20363C98.9883 5.95824 99.0349 5.7149 99.1274 5.48789C99.2199 5.26087 99.3565 5.05475 99.5291 4.88161C99.8793 4.5349 100.351 4.34072 100.842 4.34096C101.085 4.3386 101.327 4.38514 101.552 4.47789C101.778 4.57063 101.983 4.70771 102.155 4.88113C102.328 5.05454 102.464 5.2608 102.556 5.48787C102.648 5.71495 102.695 5.95827 102.693 6.20363V18.3938C102.693 18.8889 102.5 19.3643 102.156 19.7178C101.984 19.8916 101.779 20.029 101.553 20.1218C101.327 20.2147 101.085 20.2611 100.842 20.2585C100.598 20.2606 100.356 20.2138 100.131 20.1208C99.9052 20.0279 99.7003 19.8906 99.528 19.717C99.3557 19.5435 99.2194 19.3371 99.1271 19.1099C99.0348 18.8827 98.9884 18.6393 98.9904 18.3938V6.20363Z" fill="#18427F"/>
<path d="M104.783 6.20363C104.781 5.95843 104.827 5.71527 104.92 5.4883C105.012 5.26134 105.148 5.05511 105.32 4.88161C105.671 4.53496 106.143 4.34084 106.634 4.34096C106.878 4.3386 107.119 4.38514 107.345 4.47789C107.57 4.57063 107.775 4.70771 107.948 4.88113C108.12 5.05454 108.256 5.2608 108.349 5.48787C108.441 5.71495 108.487 5.95827 108.485 6.20363V18.3938C108.485 18.8888 108.292 19.3639 107.949 19.7178C107.776 19.8914 107.571 20.0287 107.345 20.1215C107.12 20.2143 106.878 20.2609 106.634 20.2585C106.39 20.2609 106.149 20.2142 105.923 20.1214C105.697 20.0285 105.492 19.8913 105.32 19.7176C105.148 19.544 105.011 19.3375 104.919 19.1102C104.827 18.8829 104.781 18.6394 104.783 18.3938V6.20363Z" fill="#18427F"/>
<path d="M116.307 8.89108C118.098 8.89108 119.511 9.43896 120.546 10.5347C121.517 11.5647 122.001 12.9282 122 14.6251C122 16.3496 121.496 17.7263 120.488 18.7549C119.443 19.852 118.023 20.3999 116.227 20.3986C114.431 20.3973 113.031 19.8494 112.027 18.7549C111.059 17.7276 110.576 16.3641 110.576 14.6646C110.576 12.965 111.073 11.5884 112.068 10.5347C113.101 9.44028 114.514 8.8924 116.307 8.89108ZM118.278 14.6448C118.278 12.5875 117.608 11.5581 116.268 11.5568C114.928 11.5555 114.264 12.5783 114.276 14.6251C114.276 16.6969 114.947 17.7328 116.288 17.7328C117.629 17.7328 118.292 16.7035 118.278 14.6448Z" fill="#18427F"/>
<path d="M7.26762 2.81373C7.26762 0.937911 8.19876 0 10.061 0H15.7811C19.7695 0 22.9253 0.927388 25.2486 2.78216C27.9232 4.94475 29.2598 8.16759 29.2585 12.4507C29.2585 16.5562 28.0538 19.6909 25.6443 21.8548C23.2936 23.9516 20.0059 25 15.7811 25H10.061C8.19876 25 7.26762 24.0621 7.26762 22.1863V2.81373Z" fill="#30A583"/>
<path d="M3.63185 2.81373C3.63185 0.937911 4.56299 0 6.42528 0H12.1453C16.1337 0 19.2896 0.927388 21.6128 2.78216C24.2874 4.94475 25.6241 8.16759 25.6228 12.4507C25.6228 16.5562 24.418 19.6909 22.0085 21.8548C19.6617 23.9529 16.374 25.0013 12.1453 25H6.42528C4.56299 25 3.63185 24.0621 3.63185 22.1863V2.81373Z" fill="#FFBC45"/>
<path d="M0 2.81373C0 0.937911 0.931143 0 2.79343 0H8.5135C12.5019 0 15.6577 0.927388 17.981 2.78216C20.6543 4.94475 21.9916 8.16759 21.9929 12.4507C21.9929 16.5562 20.7875 19.6909 18.3767 21.8548C16.026 23.9516 12.7382 25 8.5135 25H2.79343C0.931143 25 0 24.0621 0 22.1863V2.81373Z" fill="#18427F"/>
</g>
<defs>
<clipPath id="clip0_3_12">
<rect width="122" height="25" fill="white"/>
</clipPath>
</defs>
</svg>
