<svg width="122" height="25" viewBox="0 0 122 25" fill="none" xmlns="http://www.w3.org/2000/svg">
<g clip-path="url(#clip0_211_53)">
<path d="M36.5704 6.81067C36.5704 5.68542 37.133 5.1228 38.2583 5.1228H41.7228C44.151 5.1228 46.0461 5.68542 47.4675 6.78106C49.0961 8.08397 49.8956 10.0087 49.8956 12.5849C49.8956 15.0427 49.1553 16.9379 47.7044 18.2408C46.283 19.5141 44.299 20.1359 41.7228 20.1359H38.2583C37.133 20.1359 36.5704 19.5733 36.5704 18.448V6.81067ZM41.7228 17.1155C43.0553 17.1155 44.0621 16.7898 44.7432 16.1679C45.5131 15.4277 45.9277 14.2136 45.9277 12.5553C45.9277 9.62377 44.5359 8.14319 41.7228 8.14319H40.3607V17.1451H41.7228V17.1155Z" fill="white"/>
<path d="M53.3898 4.67847H54.3078C54.7223 4.67847 55.1073 4.82652 55.4034 5.12264C55.6995 5.41876 55.8476 5.80371 55.8476 6.21827C55.8476 6.63284 55.6995 7.01779 55.4034 7.3139C55.1073 7.61002 54.7223 7.75808 54.3078 7.75808H53.3898C52.9752 7.75808 52.5903 7.61002 52.2942 7.3139C51.9981 7.01779 51.85 6.63284 51.85 6.21827C51.85 5.80371 51.9981 5.41876 52.2942 5.12264C52.5903 4.82652 52.9456 4.67847 53.3898 4.67847ZM51.9981 10.9857C51.9981 10.4823 52.1757 10.0382 52.5311 9.68284C52.916 9.3275 53.3602 9.14983 53.834 9.14983C54.3374 9.14983 54.7815 9.3275 55.1369 9.68284C55.4922 10.0678 55.6699 10.4823 55.6699 10.9857V18.4479C55.6699 18.9513 55.4922 19.3658 55.1369 19.7508C54.7519 20.1061 54.3374 20.2838 53.834 20.2838C53.3306 20.2838 52.916 20.1061 52.5311 19.7508C52.1757 19.3658 51.9981 18.9217 51.9981 18.4479V10.9857Z" fill="white"/>
<path d="M62.6583 9.09082C64.0204 9.09082 65.0272 9.56461 65.6786 10.5122C65.7379 10.1272 65.9451 9.8015 66.2709 9.535C66.5966 9.26849 66.9816 9.15004 67.3665 9.15004C67.8403 9.15004 68.2549 9.32771 68.5806 9.65344C68.9063 9.97917 69.084 10.3937 69.084 10.8379V18.8923C69.084 22.8306 67.0704 24.785 63.0136 24.785C61.533 24.785 60.3485 24.4593 59.4602 23.8078C59.0456 23.5117 58.8383 23.0971 58.8383 22.5049C58.8383 22.0903 58.9864 21.7054 59.2825 21.4093C59.5786 21.1132 59.934 20.9651 60.3485 20.9651C60.8519 20.9651 61.2369 21.1428 61.533 21.5277C61.918 22.0015 62.451 22.2384 63.1617 22.2384C64.6422 22.2384 65.3825 21.4389 65.3825 19.8695V18.685C64.6126 19.6326 63.5762 20.1064 62.2437 20.1064C60.7039 20.1064 59.549 19.5437 58.7495 18.4481C58.0684 17.4709 57.7131 16.1976 57.7131 14.6578C57.7131 12.9996 58.1573 11.6374 59.0752 10.6306C59.9932 9.59422 61.1777 9.09082 62.6583 9.09082ZM63.4578 17.6782C64.1092 17.6782 64.6126 17.3821 64.9383 16.8195C65.2641 16.2865 65.4417 15.5462 65.4417 14.5986C65.4417 13.651 65.2641 12.9107 64.9383 12.3777C64.6126 11.8151 64.1092 11.519 63.4578 11.519C62.8063 11.519 62.3029 11.8151 61.9476 12.3777C61.6218 12.9107 61.4442 13.651 61.4442 14.5986C61.4442 15.5462 61.6218 16.2865 61.9476 16.8195C62.3029 17.3821 62.8063 17.6782 63.4578 17.6782Z" fill="white"/>
<path d="M72.5485 4.67847H73.4665C73.8811 4.67847 74.266 4.82652 74.5621 5.12264C74.8583 5.41876 75.0063 5.80371 75.0063 6.21827C75.0063 6.63284 74.8583 7.01779 74.5621 7.3139C74.266 7.61002 73.8811 7.75808 73.4665 7.75808H72.5485C72.134 7.75808 71.749 7.61002 71.4529 7.3139C71.1568 7.01779 71.0087 6.63284 71.0087 6.21827C71.0087 5.80371 71.1568 5.41876 71.4529 5.12264C71.749 4.82652 72.1044 4.67847 72.5485 4.67847ZM71.1568 10.9857C71.1568 10.4823 71.3345 10.0382 71.6898 9.68284C72.0748 9.3275 72.5189 9.14983 72.9927 9.14983C73.4961 9.14983 73.9403 9.3275 74.2956 9.68284C74.651 10.0678 74.8286 10.4823 74.8286 10.9857V18.4479C74.8286 18.9513 74.651 19.3658 74.2956 19.7508C73.9107 20.1061 73.4961 20.2838 72.9927 20.2838C72.4893 20.2838 72.0748 20.1061 71.6898 19.7508C71.3345 19.3658 71.1568 18.9217 71.1568 18.4479V10.9857Z" fill="white"/>
<path d="M78.1451 9.29805H78.8262L78.915 7.81746C78.915 7.4029 79.0927 7.01795 79.4184 6.69222C79.7738 6.39611 80.1587 6.24805 80.6029 6.24805C81.0767 6.24805 81.4617 6.42572 81.7874 6.75144C82.1131 7.07717 82.2908 7.49174 82.2908 7.93591V9.29805H83.4752C83.801 9.29805 84.0971 9.41649 84.334 9.65339C84.5709 9.89028 84.6893 10.1864 84.6893 10.5121C84.6893 10.8675 84.5709 11.1636 84.334 11.4005C84.0971 11.6374 83.801 11.7558 83.4752 11.7558H82.3796V16.1976C82.3796 16.701 82.4981 17.0859 82.7646 17.3228C82.883 17.4413 83.0015 17.5301 83.0903 17.5893C83.2087 17.6189 83.3272 17.6781 83.4456 17.7078C84.3932 17.9743 84.867 18.3888 84.867 18.8922C84.867 19.5437 84.5709 19.9879 83.9786 20.1951C83.7417 20.284 83.4456 20.3432 83.0903 20.3728C82.9422 20.3728 82.6165 20.4024 82.1427 20.4024C80.8694 20.4024 79.9515 20.0767 79.4184 19.4252C78.9151 18.8034 78.6485 17.8262 78.6485 16.5233L78.6782 11.7558H78.1155C77.7898 11.7558 77.4937 11.6374 77.2568 11.4005C77.0199 11.1636 76.9015 10.8675 76.9015 10.5417C76.9015 10.1864 77.0199 9.89028 77.2568 9.65339C77.5529 9.41649 77.8194 9.29805 78.1451 9.29805Z" fill="white"/>
<path d="M91.4704 9.03149C93.1286 9.03149 94.4908 9.5645 95.4976 10.6305C96.4155 11.5781 96.8893 12.6737 96.8893 13.9766C96.8893 15.1315 96.3563 15.7237 95.2607 15.7237H89.3976C89.4568 16.3752 89.6937 16.8786 90.1082 17.2635C90.5228 17.6485 91.0262 17.8262 91.6481 17.8262C91.9738 17.8262 92.2995 17.7669 92.566 17.6485C92.7141 17.5893 92.9214 17.4412 93.2175 17.2339C93.7209 16.849 94.165 16.6417 94.55 16.6417C94.9646 16.6417 95.3199 16.7897 95.616 17.0859C95.9121 17.382 96.0602 17.7373 96.0602 18.1815C96.0602 18.9218 95.616 19.514 94.7573 19.9286C93.9874 20.2839 93.0694 20.432 92.0034 20.432C90.1379 20.432 88.6573 19.9286 87.5617 18.8922C86.466 17.8854 85.933 16.4936 85.933 14.7465C85.933 13.0587 86.4364 11.6965 87.4432 10.6601C88.4204 9.5645 89.7825 9.03149 91.4704 9.03149ZM93.3359 13.5325C93.3359 12.9106 93.1286 12.4072 92.7733 12.0223C92.4476 11.6373 92.0034 11.4596 91.4112 11.4596C90.8189 11.4596 90.3748 11.6373 90.049 12.0223C89.6641 12.4072 89.4568 12.9106 89.3976 13.5325H93.3359Z" fill="white"/>
<path d="M98.9917 6.36644C98.9917 5.86304 99.1694 5.41887 99.5248 5.06353C99.9097 4.70819 100.354 4.53052 100.828 4.53052C101.331 4.53052 101.775 4.70819 102.131 5.06353C102.486 5.44848 102.664 5.86304 102.664 6.36644V18.4776C102.664 18.981 102.486 19.3956 102.131 19.7805C101.746 20.1359 101.331 20.3135 100.828 20.3135C100.324 20.3135 99.9097 20.1359 99.5248 19.7805C99.1694 19.3956 98.9917 18.9514 98.9917 18.4776V6.36644Z" fill="white"/>
<path d="M104.796 6.36644C104.796 5.86304 104.973 5.41887 105.329 5.06353C105.714 4.70819 106.158 4.53052 106.632 4.53052C107.135 4.53052 107.579 4.70819 107.934 5.06353C108.29 5.44848 108.467 5.86304 108.467 6.36644V18.4776C108.467 18.981 108.29 19.3956 107.934 19.7805C107.55 20.1359 107.135 20.3135 106.632 20.3135C106.128 20.3135 105.714 20.1359 105.329 19.7805C104.973 19.3956 104.796 18.9514 104.796 18.4776V6.36644Z" fill="white"/>
<path d="M116.315 9.03149C118.091 9.03149 119.513 9.5645 120.549 10.6601C121.526 11.6965 122 13.0291 122 14.7169C122 16.4344 121.497 17.7965 120.49 18.8033C119.453 19.899 118.032 20.432 116.226 20.432C114.449 20.432 113.028 19.899 112.021 18.8033C111.044 17.7965 110.57 16.4344 110.57 14.7465C110.57 13.0587 111.073 11.6669 112.05 10.6601C113.117 9.5645 114.538 9.03149 116.315 9.03149ZM118.299 14.7465C118.299 12.7033 117.617 11.6669 116.285 11.6669C114.952 11.6669 114.301 12.6737 114.301 14.7169C114.301 16.7601 114.982 17.7965 116.315 17.7965C117.617 17.7965 118.299 16.7897 118.299 14.7465Z" fill="white"/>
<path d="M0 2.78349C0 0.917961 0.917961 0 2.78349 0H8.49854C12.4961 0 15.635 0.917961 17.9743 2.75388C20.6393 4.91553 21.9718 8.11359 21.9718 12.3481C21.9718 16.4345 20.7578 19.5437 18.3592 21.6757C16.0199 23.7485 12.733 24.785 8.49854 24.785H2.78349C0.917961 24.785 0 23.867 0 22.0015V2.78349Z" fill="white"/>
<path d="M21.6165 2.75385C19.7806 1.30287 17.4413 0.414525 14.5689 0.118408C16.316 0.592195 17.8262 1.33249 19.0995 2.33928C21.883 4.58977 23.3044 7.9655 23.3044 12.348C23.3044 16.5529 22.0311 19.8398 19.5141 22.0903C18.1519 23.3043 16.4937 24.1631 14.5393 24.6961C17.6189 24.3703 20.1359 23.3636 22.0015 21.7053C24.4 19.5437 25.6141 16.4344 25.6141 12.3776C25.6141 8.11355 24.2816 4.9155 21.6165 2.75385Z" fill="white"/>
<path d="M25.2587 2.75385C23.4228 1.30287 21.0539 0.414525 18.1816 0.118408C19.9286 0.592195 21.4388 1.33249 22.7121 2.33928C25.4956 4.58977 26.917 7.9655 26.917 12.348C26.9466 16.5825 25.6733 19.8398 23.1563 22.0903C21.7942 23.2747 20.1359 24.1631 18.1816 24.6961C21.2612 24.3703 23.7485 23.3636 25.6437 21.7053C28.0422 19.5437 29.2563 16.4344 29.2563 12.3776C29.2563 8.11355 27.9238 4.9155 25.2587 2.75385Z" fill="white"/>
</g>
<defs>
<clipPath id="clip0_211_53">
<rect width="122" height="24.8146" fill="white"/>
</clipPath>
</defs>
</svg>
