<svg width="30" height="25" viewBox="0 0 30 25" fill="none" xmlns="http://www.w3.org/2000/svg">
<path d="M7.26758 2.81373C7.26758 0.937911 8.19872 0 10.061 0H15.7811C19.7694 0 22.9253 0.927388 25.2486 2.78216C27.9232 4.94475 29.2598 8.16759 29.2585 12.4507C29.2585 16.5562 28.0538 19.6909 25.6443 21.8548C23.2936 23.9516 20.0058 25 15.7811 25H10.061C8.19872 25 7.26758 24.0621 7.26758 22.1863V2.81373Z" fill="#30A583"/>
<path d="M3.63184 2.81373C3.63184 0.937911 4.56298 0 6.42527 0H12.1453C16.1337 0 19.2895 0.927388 21.6128 2.78216C24.2874 4.94475 25.6241 8.16759 25.6227 12.4507C25.6227 16.5562 24.418 19.6909 22.0085 21.8548C19.6617 23.9529 16.374 25.0013 12.1453 25H6.42527C4.56298 25 3.63184 24.0621 3.63184 22.1863V2.81373Z" fill="#FFBC45"/>
<path d="M0 2.81373C0 0.937911 0.931143 0 2.79343 0H8.5135C12.5019 0 15.6577 0.927388 17.981 2.78216C20.6543 4.94475 21.9916 8.16759 21.9929 12.4507C21.9929 16.5562 20.7875 19.6909 18.3767 21.8548C16.026 23.9516 12.7382 25 8.5135 25H2.79343C0.931143 25 0 24.0621 0 22.1863V2.81373Z" fill="#18427F"/>
</svg>
