<svg width="16" height="17" viewBox="0 0 16 17" fill="none" xmlns="http://www.w3.org/2000/svg">
<path d="M1.73684 0.868408C0.780222 0.868408 0 1.64863 0 2.60525V14.7631C0 15.7198 0.780222 16.5 1.73684 16.5H13.8947C14.8514 16.5 15.6316 15.7198 15.6316 14.7631V2.60525C15.6316 1.64863 14.8514 0.868408 13.8947 0.868408H1.73684ZM2.95806 4.93913H5.21053C7.20857 4.93913 7.54441 6.16713 7.54441 6.94736C7.54441 8.07698 6.76758 8.43317 6.59457 8.52137C6.76758 8.60957 7.65296 8.84703 7.65296 10.1497C7.74116 11.7135 6.76419 12.3207 5.37336 12.3207H2.95806V4.93913ZM9.03701 4.93913H12.2393V5.80755H9.03701V4.93913ZM4.42352 6.16035V7.97861H5.21053C5.73294 7.97861 6.07895 7.8056 6.07895 7.11018C6.07895 6.50297 5.81774 6.16035 5.21053 6.16035H4.42352ZM10.9367 6.78453C12.1511 6.78453 13.0263 7.47316 13.0263 9.4712V10.0682H10.0683C10.0683 10.3294 10.0852 11.2895 11.1266 11.2895C11.8221 11.2895 12.1477 10.9468 12.3207 10.7738L12.9449 11.6423C12.8567 11.7305 12.2563 12.4293 11.1266 12.4293C9.82401 12.4293 8.76562 11.7305 8.76562 9.90541V9.4712C8.76562 7.47316 9.80705 6.78453 10.9367 6.78453ZM10.7738 7.89719C10.5126 7.89719 9.98684 7.99557 9.98684 9.03699H11.4523C11.4523 9.03699 11.6423 7.89719 10.7738 7.89719ZM4.42352 9.11841V11.1266H5.37336C5.89577 11.1266 6.16036 10.7569 6.16036 10.1497C6.24856 9.45424 6.00432 9.11841 5.48191 9.11841H4.42352Z" fill="#18427F"/>
</svg>
