<svg width="16" height="17" viewBox="0 0 16 17" fill="none" xmlns="http://www.w3.org/2000/svg">
<path d="M4.34211 0.868408C1.94439 0.868408 0 2.8128 0 5.21051V12.1579C0 14.5556 1.94439 16.5 4.34211 16.5H11.2895C13.6872 16.5 15.6316 14.5556 15.6316 12.1579V5.21051C15.6316 2.8128 13.6872 0.868408 11.2895 0.868408H4.34211ZM13.0263 2.60525C13.5057 2.60525 13.8947 2.9943 13.8947 3.47367C13.8947 3.95304 13.5057 4.34209 13.0263 4.34209C12.5469 4.34209 12.1579 3.95304 12.1579 3.47367C12.1579 2.9943 12.5469 2.60525 13.0263 2.60525ZM7.81579 4.34209C10.2135 4.34209 12.1579 6.28649 12.1579 8.6842C12.1579 11.0819 10.2135 13.0263 7.81579 13.0263C5.41808 13.0263 3.47368 11.0819 3.47368 8.6842C3.47368 6.28649 5.41808 4.34209 7.81579 4.34209ZM7.81579 6.07893C7.12483 6.07893 6.46217 6.35342 5.97359 6.842C5.48501 7.33058 5.21053 7.99324 5.21053 8.6842C5.21053 9.37516 5.48501 10.0378 5.97359 10.5264C6.46217 11.015 7.12483 11.2895 7.81579 11.2895C8.50675 11.2895 9.16941 11.015 9.65799 10.5264C10.1466 10.0378 10.4211 9.37516 10.4211 8.6842C10.4211 7.99324 10.1466 7.33058 9.65799 6.842C9.16941 6.35342 8.50675 6.07893 7.81579 6.07893Z" fill="#18427F"/>
</svg>
