<svg width="16" height="16" viewBox="0 0 16 16" fill="none" xmlns="http://www.w3.org/2000/svg">
<path d="M13.8947 0.184082H1.73684C0.777237 0.184082 0 0.961319 0 1.92092V14.0788C0 15.0384 0.777237 15.8157 1.73684 15.8157H13.8947C14.8543 15.8157 15.6316 15.0384 15.6316 14.0788V1.92092C15.6316 0.961319 14.8543 0.184082 13.8947 0.184082ZM5.21053 12.342H3.0195V6.26303H5.21053V12.342ZM4.07637 5.14885C3.40682 5.14885 2.95958 4.70248 2.95958 4.10674C2.95958 3.511 3.40595 3.06463 4.15018 3.06463C4.81974 3.06463 5.26697 3.511 5.26697 4.10674C5.26697 4.70248 4.82061 5.14885 4.07637 5.14885ZM13.0263 12.342H10.9056V9.0194C10.9056 8.10061 10.3403 7.88871 10.1284 7.88871C9.9165 7.88871 9.20961 8.03027 9.20961 9.0194C9.20961 9.16095 9.20961 12.342 9.20961 12.342H7.01858V6.26303H9.20961V7.11148C9.49184 6.61648 10.0572 6.26303 11.1175 6.26303C12.1779 6.26303 13.0263 7.11148 13.0263 9.0194V12.342Z" fill="#18427F"/>
</svg>
