<svg width="15" height="21" viewBox="0 0 15 21" fill="none" xmlns="http://www.w3.org/2000/svg">
<path d="M7.23256 0C3.24448 0 0 3.24495 0 7.23314C0 11.0721 6.56223 20.0413 6.84164 20.4211L7.10241 20.776C7.13291 20.8177 7.18147 20.8421 7.23256 20.8421C7.28444 20.8421 7.33269 20.8177 7.3635 20.776L7.62411 20.4211C7.90368 20.0413 14.4658 11.0721 14.4658 7.23314C14.4658 3.24495 11.2207 0 7.23256 0ZM7.23256 4.64224C8.6615 4.64224 9.82346 5.80425 9.82346 7.23314C9.82346 8.66129 8.66145 9.82404 7.23256 9.82404C5.80446 9.82404 4.64166 8.66129 4.64166 7.23314C4.64166 5.80425 5.80441 4.64224 7.23256 4.64224Z" fill="#18427F"/>
</svg>
