<svg width="18" height="18" viewBox="0 0 18 18" fill="none" xmlns="http://www.w3.org/2000/svg">
<path d="M8.68421 0.315674C3.88792 0.315674 0 4.2036 0 8.99988C0 12.6794 2.28916 15.8213 5.51968 17.0866C5.44413 16.3997 5.37466 15.3454 5.55008 14.596C5.70813 13.9186 6.56787 10.2791 6.56787 10.2791C6.56787 10.2791 6.30821 9.75888 6.30821 8.99033C6.30821 7.78236 7.00816 6.88181 7.87918 6.88181C8.61995 6.88181 8.97774 7.43846 8.97774 8.10454C8.97774 8.84965 8.50358 9.96383 8.25869 10.9955C8.05374 11.8605 8.69203 12.5648 9.54482 12.5648C11.088 12.5648 12.2743 10.9373 12.2743 8.58825C12.2743 6.50925 10.7806 5.05552 8.64687 5.05552C6.17621 5.05552 4.72595 6.90873 4.72595 8.82446C4.72595 9.57044 5.01339 10.3711 5.37205 10.8062C5.44326 10.8922 5.45282 10.9677 5.43197 11.0554C5.36597 11.3299 5.22008 11.9195 5.19142 12.0402C5.15408 12.1991 5.0655 12.233 4.90137 12.1557C3.81671 11.6503 3.13847 10.0646 3.13847 8.79146C3.13847 6.05246 5.12889 3.53578 8.877 3.53578C11.8896 3.53578 14.2308 5.68252 14.2308 8.55178C14.2308 11.5452 12.3437 13.9534 9.72458 13.9534C8.84487 13.9534 8.01726 13.4957 7.73416 12.9564C7.73416 12.9564 7.29821 14.6142 7.19313 15.0215C6.99687 15.7753 6.468 16.7219 6.11368 17.2985C6.92566 17.5478 7.78887 17.6841 8.68421 17.6841C13.4796 17.6841 17.3684 13.7953 17.3684 8.99988C17.3684 4.20446 13.4805 0.315674 8.68421 0.315674Z" fill="#18427F"/>
</svg>
