<svg width="18" height="16" viewBox="0 0 18 16" fill="none" xmlns="http://www.w3.org/2000/svg">
<path d="M15.8911 0.170613C15.6401 0.181529 15.4099 0.253703 15.2075 0.333442C15.0206 0.407048 14.3495 0.689145 13.2807 1.13741C12.212 1.58567 10.7958 2.18002 9.28634 2.81489C6.26734 4.08463 2.87476 5.51292 1.13641 6.24447C1.07671 6.26934 0.834274 6.34356 0.566509 6.54808C0.298123 6.75307 0 7.19795 0 7.68449C0 8.07697 0.195928 8.4767 0.432514 8.70556C0.669101 8.93442 0.908876 9.04142 1.10927 9.12112V9.11942C1.78666 9.38929 3.80958 10.1988 4.29122 10.3915C4.46207 10.9035 5.19549 13.0952 5.36996 13.6464H5.36827C5.49159 14.0365 5.6118 14.2907 5.77873 14.503C5.8622 14.6091 5.96183 14.7052 6.08404 14.7811C6.13093 14.8102 6.18284 14.8328 6.23499 14.8541C6.24226 14.8571 6.24975 14.8579 6.25704 14.8608L6.23669 14.8557C6.25181 14.8618 6.26538 14.8708 6.28079 14.8761C6.3059 14.8847 6.3233 14.8845 6.35711 14.8914C6.47609 14.928 6.59485 14.9524 6.70482 14.9524C7.1769 14.9524 7.46638 14.6963 7.46638 14.6963L7.48504 14.6827L9.5238 12.9578L12.0205 15.2679C12.0661 15.3323 12.4234 15.8158 13.2502 15.8158C13.7436 15.8158 14.1337 15.5716 14.3832 15.3154C14.6328 15.0592 14.7883 14.7972 14.8581 14.4419L14.8598 14.4402C14.9156 14.1535 17.3057 2.1517 17.3057 2.1517L17.3006 2.17205C17.375 1.84002 17.3969 1.51891 17.3091 1.19169C17.2212 0.864459 16.984 0.545119 16.6984 0.377541C16.4129 0.209963 16.142 0.159696 15.8911 0.170613ZM15.5485 2.07198C15.454 2.54616 13.313 13.3024 13.1807 13.9772L9.57468 10.6409L7.13734 12.7017L7.8124 10.0625C7.8124 10.0625 12.4693 5.34856 12.7498 5.07414C12.9756 4.85443 13.0229 4.77741 13.0229 4.70099C13.0229 4.59938 12.9706 4.52629 12.8499 4.52629C12.7414 4.52629 12.5939 4.63031 12.5158 4.67894C11.5226 5.29813 7.29246 7.70878 5.21222 8.89214C5.08703 8.84194 3.2075 8.08721 2.1948 7.68279C3.99613 6.92467 7.08393 5.62554 9.9597 4.41604C11.4689 3.78128 12.8847 3.1864 13.9524 2.73856C14.8537 2.36053 15.3238 2.16479 15.5485 2.07198ZM13.1552 14.101H13.1569L13.1552 14.1061C13.1563 14.1004 13.1544 14.1054 13.1552 14.101Z" fill="#18427F"/>
</svg>
