<svg width="16" height="16" viewBox="0 0 16 16" fill="none" xmlns="http://www.w3.org/2000/svg">
<path d="M2.60526 0.184082C1.17674 0.184082 0 1.36082 0 2.78935V13.2104C0 14.6389 1.17674 15.8157 2.60526 15.8157H13.0263C14.4548 15.8157 15.6316 14.6389 15.6316 13.2104V2.78935C15.6316 1.36082 14.4548 0.184082 13.0263 0.184082H2.60526ZM7.81579 3.65777H9.55263C9.55263 4.53053 10.8301 5.39461 11.2895 5.39461V7.13145C10.7641 7.13145 10.1327 6.90059 9.55263 6.51067V9.73671C9.55263 11.1731 8.38374 12.342 6.94737 12.342C5.511 12.342 4.34211 11.1731 4.34211 9.73671C4.34211 8.30035 5.511 7.13145 6.94737 7.13145V8.86829C6.468 8.86829 6.07895 9.25821 6.07895 9.73671C6.07895 10.2152 6.468 10.6051 6.94737 10.6051C7.42674 10.6051 7.81579 10.2152 7.81579 9.73671V3.65777Z" fill="#18427F"/>
</svg>
