<svg width="18" height="15" viewBox="0 0 18 15" fill="none" xmlns="http://www.w3.org/2000/svg">
<path d="M17.3684 0.736084C16.6911 1.13816 15.332 1.68614 14.533 1.84419C14.5096 1.85027 14.4905 1.85808 14.4679 1.86416C13.7619 1.16769 12.7944 0.736084 11.7237 0.736084C9.56566 0.736084 7.81579 2.48595 7.81579 4.64398C7.81579 4.75774 7.80624 4.96703 7.81579 5.07819C4.90397 5.07819 2.68776 3.55324 1.09855 1.60451C0.925737 2.03872 0.850184 2.72477 0.850184 3.36914C0.850184 4.58579 1.80111 5.78074 3.28176 6.52151C3.00908 6.59185 2.70861 6.64222 2.39597 6.64222C1.89142 6.64222 1.35734 6.50935 0.868421 6.1064C0.868421 6.12116 0.868421 6.13506 0.868421 6.15069C0.868421 7.85106 2.673 9.00866 4.27784 9.33085C3.95218 9.52277 3.29566 9.54187 2.97521 9.54187C2.74942 9.54187 1.95047 9.43853 1.73684 9.39858C2.18321 10.7924 3.79326 11.5757 5.32776 11.6035C4.12761 12.5449 3.29479 12.894 0.837158 12.894H0C1.55274 13.8892 3.53013 14.6317 5.51187 14.6317C11.9642 14.6317 15.6316 9.71382 15.6316 5.07819C15.6316 5.0035 15.6298 4.84719 15.6272 4.69001C15.6272 4.67437 15.6316 4.65961 15.6316 4.64398C15.6316 4.62053 15.6246 4.59795 15.6246 4.5745C15.622 4.4564 15.6194 4.34611 15.6168 4.28879C16.3029 3.79379 16.8977 3.17635 17.3684 2.47293C16.7388 2.75256 16.0632 2.94014 15.3537 3.02524C16.0779 2.59103 17.107 1.55587 17.3684 0.736084Z" fill="#18427F"/>
</svg>
