<svg width="18" height="18" viewBox="0 0 18 18" fill="none" xmlns="http://www.w3.org/2000/svg">
<path d="M14.83 2.54274C13.1922 0.904026 11.0142 0.000868421 8.69376 0C3.91224 0 0.0208422 3.88966 0.0191053 8.67118C0.0182369 10.1996 0.417711 11.6916 1.17671 13.0063L0 17.3684L4.54445 16.2942C5.81147 16.9854 7.23742 17.3493 8.68942 17.3502H8.6929C13.4736 17.3502 17.365 13.4597 17.3676 8.679C17.3693 6.36119 16.4679 4.18232 14.83 2.54274ZM12.9377 11.7706C12.7571 12.2769 11.8722 12.7649 11.4744 12.8005C11.0767 12.837 10.7042 12.9803 8.87353 12.2586C6.67034 11.3902 5.27913 9.13145 5.17145 8.98729C5.0629 8.84226 4.28653 7.81232 4.28653 6.74589C4.28653 5.67947 4.84666 5.15495 5.04553 4.93871C5.2444 4.72161 5.47887 4.66776 5.6239 4.66776C5.76805 4.66776 5.91308 4.66776 6.039 4.67297C6.19358 4.67905 6.36466 4.68687 6.52705 5.04726C6.71984 5.47626 7.14103 6.54789 7.19487 6.65645C7.24871 6.765 7.28518 6.89179 7.21311 7.03595C7.14103 7.18011 7.10455 7.27042 6.99687 7.39721C6.88832 7.524 6.76934 7.67945 6.67208 7.77671C6.56353 7.8844 6.45063 8.0025 6.57655 8.21874C6.70334 8.43584 7.13755 9.14534 7.78192 9.71937C8.6104 10.4575 9.30774 10.6859 9.52484 10.7953C9.74195 10.9039 9.86787 10.8857 9.99466 10.7406C10.1214 10.5965 10.5366 10.1084 10.6807 9.89132C10.8249 9.67421 10.9699 9.71068 11.1688 9.78276C11.3676 9.85484 12.4332 10.3794 12.6494 10.4879C12.8665 10.5965 13.0107 10.6503 13.0645 10.7406C13.1184 10.8301 13.1184 11.2643 12.9377 11.7706Z" fill="#18427F"/>
</svg>
