<svg width="16" height="18" viewBox="0 0 16 18" fill="none" xmlns="http://www.w3.org/2000/svg">
<path d="M2.3271 0.473633L3.61107 5.11426V7.33959H4.72374V5.11426L6.02467 0.473633H4.90353L4.43709 2.58532C4.30596 3.2019 4.22258 3.64013 4.18436 3.90152H4.15044C4.09573 3.53592 4.01235 3.09442 3.89772 2.57684L3.44824 0.473633H2.3271ZM7.32221 2.22574C6.94532 2.22574 6.64156 2.29939 6.40969 2.44963C6.17783 2.599 6.00688 2.838 5.89746 3.1654C5.78891 3.49279 5.73463 3.92618 5.73463 4.46633V5.19567C5.73463 5.72975 5.78158 6.15746 5.87711 6.47965C5.97263 6.80183 6.13385 7.03918 6.36051 7.19202C6.58716 7.34487 6.89904 7.421 7.29677 7.421C7.68409 7.421 7.99198 7.34565 8.21777 7.19542C8.44356 7.04518 8.60722 6.80952 8.70796 6.48474C8.80869 6.15995 8.85891 5.73062 8.85891 5.19567V4.46633C8.85891 3.92704 8.80791 3.49528 8.70457 3.17049C8.60122 2.84657 8.43674 2.60756 8.21269 2.45472C7.98863 2.30188 7.69303 2.22574 7.32221 2.22574ZM9.44747 2.32412V6.07088C9.44747 6.53462 9.52518 6.87567 9.68323 7.09365C9.84129 7.31162 10.0868 7.421 10.4194 7.421C10.8987 7.421 11.2601 7.18932 11.4998 6.72559H11.5235L11.6219 7.33959H12.5056V2.32412H11.3777V6.30834C11.3343 6.40126 11.2678 6.47739 11.1775 6.53732C11.0872 6.5981 10.9941 6.62721 10.896 6.62721C10.7813 6.62721 10.6995 6.58026 10.65 6.48474C10.6005 6.38921 10.5754 6.22878 10.5754 6.00473V2.32412H9.44747ZM7.29677 3.00257C7.45482 3.00257 7.56669 3.08516 7.62921 3.2519C7.69174 3.41777 7.7225 3.68191 7.7225 4.0423V5.60444C7.7225 5.97526 7.69174 6.24345 7.62921 6.40671C7.56669 6.56998 7.45565 6.65178 7.29847 6.65265C7.14042 6.65265 7.03104 6.56998 6.97111 6.40671C6.91033 6.24345 6.88122 5.97526 6.88122 5.60444V4.0423C6.88122 3.68277 6.91198 3.41864 6.97451 3.2519C7.03703 3.08603 7.14393 3.00257 7.29677 3.00257ZM1.73684 8.28942C0.781579 8.28942 0 9.071 0 10.0263V16.1052C0 17.0605 0.781579 17.8421 1.73684 17.8421H13.8947C14.85 17.8421 15.6316 17.0605 15.6316 16.1052V10.0263C15.6316 9.071 14.85 8.28942 13.8947 8.28942H1.73684ZM7.85819 10.0263H8.7758V12.2567H8.78259C8.86509 12.0952 8.98341 11.9656 9.13538 11.8666C9.28736 11.7676 9.45184 11.719 9.62726 11.719C9.85305 11.719 10.0296 11.779 10.1582 11.8988C10.2867 12.0186 10.3807 12.2123 10.438 12.4789C10.4953 12.7463 10.5228 13.1174 10.5228 13.5915V14.2615H10.5245C10.5245 14.8929 10.4475 15.3553 10.2955 15.6523C10.1436 15.9493 9.90704 16.0984 9.58486 16.0984C9.4051 16.0984 9.24231 16.0571 9.09468 15.9746C8.94704 15.8921 8.83605 15.7787 8.76223 15.6354H8.74188L8.6452 16.0357H7.85819V10.0263ZM2.15918 10.24H4.98324V11.0083H4.0368V16.0357H3.10562V11.0083H2.15918V10.24ZM12.2427 11.7207C12.5692 11.7207 12.8204 11.7807 12.9958 11.9005C13.1703 12.0203 13.2935 12.2075 13.3655 12.4602C13.4368 12.7138 13.4724 13.0638 13.4724 13.5101V14.2361H11.878V14.4515C11.878 14.7233 11.8853 14.9266 11.9018 15.0621C11.9183 15.1976 11.9515 15.2973 12.0019 15.3589C12.0522 15.4214 12.13 15.4522 12.2359 15.4522C12.3783 15.4522 12.4764 15.3963 12.5293 15.286C12.5823 15.1757 12.6115 14.9927 12.6159 14.7347L13.4385 14.7822C13.4428 14.8187 13.4453 14.8706 13.4453 14.9349C13.4453 15.3265 13.3375 15.619 13.123 15.8118C12.9085 16.0054 12.6072 16.1018 12.2156 16.1018C11.7457 16.1018 11.416 15.9535 11.2267 15.6591C11.0374 15.3647 10.9435 14.9095 10.9435 14.292V13.5525C10.9435 12.9168 11.0415 12.4527 11.2369 12.16C11.4323 11.8673 11.7685 11.7207 12.2427 11.7207ZM4.69829 11.8021H5.65322V14.9111C5.65322 15.0996 5.67429 15.2349 5.71597 15.3148C5.75766 15.3956 5.82564 15.4352 5.9229 15.4352C6.0054 15.4352 6.08651 15.4101 6.16206 15.3589C6.23848 15.3085 6.29263 15.2437 6.32997 15.1656V11.8021H7.2849V16.0357H7.2832H6.5369L6.45549 15.5167H6.43344C6.23023 15.9092 5.92647 16.1052 5.52092 16.1052C5.23955 16.1052 5.03387 16.0128 4.90013 15.8287C4.7664 15.6446 4.69829 15.3562 4.69829 14.9654V11.8021ZM12.2223 12.3652C12.1207 12.3652 12.0454 12.3961 11.9968 12.4551C11.9481 12.5151 11.9157 12.6131 11.9001 12.7486C11.8836 12.884 11.8763 13.0898 11.8763 13.366V13.6696H12.5734V13.366C12.5734 13.0941 12.5645 12.8892 12.5463 12.7486C12.5289 12.6079 12.4949 12.5091 12.4462 12.4517C12.3976 12.3944 12.324 12.3652 12.2223 12.3652ZM9.19814 12.3958C9.10609 12.3958 9.02188 12.4322 8.94372 12.506C8.86556 12.5798 8.80963 12.6746 8.7775 12.7893V15.1927C8.81918 15.2665 8.87346 15.3216 8.94033 15.3589C9.0072 15.3954 9.07841 15.4149 9.15743 15.4149C9.25904 15.4149 9.33836 15.3785 9.39828 15.3046C9.4582 15.2308 9.50201 15.1069 9.52719 14.9315C9.55237 14.7569 9.5645 14.5138 9.5645 14.2055V13.6611C9.5645 13.3293 9.55482 13.0742 9.53397 12.8944C9.51313 12.7147 9.47583 12.585 9.42373 12.5094C9.37075 12.4339 9.2954 12.3958 9.19814 12.3958Z" fill="#18427F"/>
</svg>
